<svg viewBox="0 0 242 221" xmlns:xlink="http://www.w3.org/1999/xlink" xmlns="http://www.w3.org/2000/svg" width="242" height="221" fill="none"><path d="M133.51 123.66H14.78a6.04 6.04 0 0 0-6.04 6.04v81.2a6.04 6.04 0 0 0 6.04 6.04h118.73a6.04 6.04 0 0 0 6.04-6.04v-81.2a6.04 6.04 0 0 0-6.04-6.04Z" fill="#F49709" stroke="#F49709" stroke-width="3" stroke-linecap="round" stroke-linejoin="round"/><path opacity=".3" d="M133.5 216.93a6.002 6.002 0 0 0 6-6V129.7a6 6 0 0 0-6-6H91v93.27l42.5-.04Z" fill="#803700" stroke="#803700" stroke-width="3" stroke-linecap="round" stroke-linejoin="round"/><path d="M90.97 123.66v93.27" stroke="#803700" stroke-width="3" stroke-linecap="round" stroke-linejoin="round"/><path d="M39.25 123.66v13.24l19.04 3.25v-16.49H39.25Z" fill="#803700" stroke="#803700" stroke-width="3" stroke-linecap="round" stroke-linejoin="round"/><path d="M41.11 193.33c-2.16 2.24-4.51 4.52-7.43 5.22-2.92.7-6.52-.86-7.2-4a6.418 6.418 0 0 1 1.35-5.15 11.365 11.365 0 0 1 4.2-3.08c6.3-2.94 12.85-3 18.43-.26a49.432 49.432 0 0 0-9.35 7.27v0ZM33.441 185.17a10.727 10.727 0 0 1-3-2.33" stroke="#803700" stroke-width="3" stroke-linecap="round" stroke-linejoin="round"/><path d="M50.071 186.26a14.996 14.996 0 0 1 16 3.37c-8.32 6.74-21.77 11.22-32.45 11.36-7.5.1-13.7-5.13-17.33-10.2" stroke="#803700" stroke-width="3" stroke-linecap="round" stroke-linejoin="round"/><path d="M47.23 198.89A55.304 55.304 0 0 0 63 201.21c9.43-.12 15.24-4.19 18.58-9.05M66.102 189.63a44.205 44.205 0 0 0 4-3.53" stroke="#803700" stroke-width="3" stroke-linecap="round" stroke-linejoin="round"/><path fill-rule="evenodd" clip-rule="evenodd" d="M37.81 157.741a3.69 3.69 0 1 0-7.38 0 3.69 3.69 0 0 0 7.38 0ZM76.24 157.741a3.69 3.69 0 1 0-7.381 0 3.69 3.69 0 0 0 7.38 0Z" fill="#803700"/><path d="M28.59 146.4h4.15M67.02 146.4h4.15M44.9 166.061h6.91" stroke="#803700" stroke-width="3.41" stroke-linecap="round" stroke-linejoin="round"/><path d="M144.55 112.93c-1.74 3.79-2.28 8.32-2.28 13v84.26a6.74 6.74 0 0 0 1.991 4.777 6.756 6.756 0 0 0 4.789 1.963l79.62-.31a10.552 10.552 0 0 0 10.44-9 28.788 28.788 0 0 0-1.11-12.89c-2.26-6.68-7-12.24-12.15-17.08-5.15-4.84-10.79-9.14-15.56-14.35-6-6.51-11.07-14.86-13.23-23.49-2.16-8.63-2.92-17.65-8-25.49-6.29-9.72-23-13.7-34-10.32a16.111 16.111 0 0 0-10.51 8.93Z" fill="#13C1AC" stroke="#13C1AC" stroke-width="3" stroke-linecap="round" stroke-linejoin="round"/><path d="M197.721 158.77a133.753 133.753 0 0 1 18.73-19.93 13.98 13.98 0 0 1 4.34-2.85 4.991 4.991 0 0 1 4.92.67c2 1.73 1.62 4.82 1.11 7.39l-7.72 38.45a44.754 44.754 0 0 1-21.38-23.73Z" fill="#13C1AC" stroke="#13C1AC" stroke-width="3" stroke-linecap="round" stroke-linejoin="round"/><path opacity=".2" d="M166.93 183.81c12.17 6.83 26.22 11 40.07 9.39a84.281 84.281 0 0 0 13.4-3 59.763 59.763 0 0 0 12.56-4.8 33.353 33.353 0 0 1 5 9.29 28.767 28.767 0 0 1 1.12 12.94 10.548 10.548 0 0 1-10.44 9l-79.62.31a6.747 6.747 0 0 1-6.78-6.74v-44.54c7.76 6.77 15.76 13.14 24.69 18.15Z" fill="#04413C" stroke="#04413C" stroke-width="3" stroke-linecap="round" stroke-linejoin="round"/><path fill-rule="evenodd" clip-rule="evenodd" d="M179 123.73a3.006 3.006 0 0 1 1.767-2.855 2.995 2.995 0 0 1 3.309.571A2.998 2.998 0 0 1 182 126.61a2.948 2.948 0 0 1-3-2.88ZM148.31 124.531a2.948 2.948 0 0 1 3.456-2.986c.576.101 1.109.37 1.532.774a2.957 2.957 0 0 1 .708 3.207 2.953 2.953 0 0 1-4.79 1.06 2.94 2.94 0 0 1-.906-2.055Z" fill="#04413C"/><path d="M160.48 127.92c2.45 2.5 10.1 3.14 12.51-.27" stroke="#04413C" stroke-width="3" stroke-linecap="round" stroke-linejoin="round"/><path d="M1.6 218.93h238.8M123.55 32.81c1.8-3.43 6.89-4.3 10.06-2.08 3.17 2.22 4.23 6.76 2.94 10.42-1.29 3.66-4.83 9.52-13.83 9.52H56.5c-6.19 0-8.81-2.25-10.41-4.48-1.6-2.23-1.73-5.57.13-7.58 1.86-2.01 5.71-1.84 7 .58-.1-4.54 2.85-10.32 7.21-11.57a10.68 10.68 0 0 1 11.78 4.67 30 30 0 0 1 .9-14.4c1.52-4.53 6.2-8.38 10.83-7.23 3.48.86 5.79 4.12 7.47 7.3.49-6.17 3.15-12.36 8.84-14.82 5.69-2.46 12.93-1.1 17 3.58 2.9 3.34 4 7.87 4.36 12.28.36 4.41 1.48 9.42 1.94 13.81ZM66.79 64.2l.51 5.32M84.959 67.81l.51 5.32M96.25 88.67l.52 5.32M116.74 61.54l.52 5.32M107.1 71.33l.51 5.32M131.73 83.1l.52 5.32M63.639 83.1l.52 5.32" stroke="#CFD8DC" stroke-width="3" stroke-linecap="round" stroke-linejoin="round"/></svg>