<svg width="294" height="256" fill="none" xmlns="http://www.w3.org/2000/svg"><path d="M162 149.89a180.478 180.478 0 0 1 43.05-25.09c2.43-1 5.44-1.88 7.5-.25 2.48 2 1.57 6.08-.53 8.44-2.1 2.36-5.07 3.9-6.92 6.47a17.804 17.804 0 0 1 6.27 6.77c2 4 .82 8.92-1.25 12.92a59.246 59.246 0 0 1-9 12.13 261.43 261.43 0 0 1-27.39 26.28" fill="#D2FD61"/><path d="M162 149.89a180.478 180.478 0 0 1 43.05-25.09c2.43-1 5.44-1.88 7.5-.25 2.48 2 1.57 6.08-.53 8.44-2.1 2.36-5.07 3.9-6.92 6.47a17.804 17.804 0 0 1 6.27 6.77c2 4 .82 8.92-1.25 12.92a59.246 59.246 0 0 1-9 12.13 261.43 261.43 0 0 1-27.39 26.28" stroke="#D2FD61" stroke-width="3" stroke-linecap="round" stroke-linejoin="round"/><path d="M191.539 152.43c2.68 1.14 5.66 2.29 8.41 1.33a5.997 5.997 0 0 0 3.91-4.71c.58-3.88-2.63-7.18-5.56-9.79" stroke="#136D09" stroke-width="3" stroke-linecap="round" stroke-linejoin="round"/><path d="M67.158 235.38h116.11c3.93 0 5.92-1.37 6.72-2.65a10.272 10.272 0 0 0 1-5.14c.78-35.59-12.31-69.7-28.07-100.46-6-11.66-13.31-23.9-24.69-27.74a32 32 0 0 0-12.37-1.27 57.021 57.021 0 0 0-13.27 2.5c-4.28 1.34-8.59 3.3-11.59 7s-4.37 8.84-5.29 13.82c-1.52 8.22-2.16 16.64-3.93 24.8a84.8 84.8 0 0 1-14.61 32.43c-4.17 5.72-9.17 10.73-13.24 16.61-4.07 5.88-7.29 12.94-7.24 20.41.05 8.05 2.73 19.69 10.47 19.69Z" fill="#D2FD61" stroke="#D2FD61" stroke-width="3" stroke-linecap="round" stroke-linejoin="round"/><path d="M131.563 139.619a10.699 10.699 0 0 1-12.018-9.195l-.758-5.7 21.223-2.824.758 5.7a10.698 10.698 0 0 1-9.195 12.017l-.01.002Z" fill="#136D09" stroke="#136D09" stroke-width="3" stroke-linecap="round" stroke-linejoin="round"/><path d="M120.109 132.63a11.739 11.739 0 0 1 10.033-3.476c1.827.251 3.57.929 5.087 1.979a11.74 11.74 0 0 1 3.64 4.067 10.644 10.644 0 0 1-7.29 4.4 10.708 10.708 0 0 1-11.47-6.97Z" fill="#D2FD61" stroke="#136D09" stroke-width="3" stroke-linecap="round" stroke-linejoin="round"/><path d="M113.001 124a3.754 3.754 0 1 0-7.44 1M152.911 118.7a3.756 3.756 0 0 0-4.22-3.22 3.75 3.75 0 0 0-3.22 4.22" stroke="#136D09" stroke-width="3" stroke-linecap="round" stroke-linejoin="round"/><path d="M226.25 237.38H46.75M93.481 46.49l3 7 7.57-.7a1.341 1.341 0 0 1 1 2.34l-5.71 5 3 7a1.336 1.336 0 0 1-.348 1.53 1.342 1.342 0 0 1-1.562.15l-6.52-3.89-5.72 5a1.34 1.34 0 0 1-2.19-1.33l1.68-7.41-6.54-3.88a1.34 1.34 0 0 1 .57-2.48l7.56-.69 1.73-7.41a1.34 1.34 0 0 1 2.48-.23ZM48.531 131.39l1.91 7.35 7.58.46a1.326 1.326 0 0 1 1.213.992 1.329 1.329 0 0 1-.573 1.458l-6.4 4.09 1.91 7.35a1.34 1.34 0 0 1-2.17 1.37l-5.87-4.83-6.4 4.09a1.33 1.33 0 0 1-2-1.61l2.84-7.11-5.86-4.83a1.331 1.331 0 0 1 .93-2.36l7.58.45 2.78-7.03a1.33 1.33 0 0 1 2.53.16ZM242.598 179.71l3.21 6.89 7.54-.92a1.327 1.327 0 0 1 1.379.757 1.337 1.337 0 0 1-.309 1.543l-5.56 5.18 3.21 6.88a1.342 1.342 0 0 1-1.86 1.74l-6.64-3.69-5.57 5.17a1.331 1.331 0 0 1-2.22-1.23l1.45-7.45-6.64-3.69a1.334 1.334 0 0 1-.668-1.425 1.325 1.325 0 0 1 1.158-1.065l7.54-.92 1.45-7.46a1.344 1.344 0 0 1 1.966-.916c.247.137.445.349.564.606v0Z" stroke="#CFD8DC" stroke-width="3" stroke-linecap="round" stroke-linejoin="round"/><path opacity=".2" d="M189.531 203.43c-6.23 0-16 8.12-24.3 11.81-8.3 3.69-20.87 4.83-30.43 2.94-9.56-1.89-17.49-7.72-25.39-15.05-7.9-7.33-19.3-14.13-30.79-16.7a38.627 38.627 0 0 0-7-.87c-2.66 3.15-5.34 6.29-7.72 9.72-4.07 5.88-7.29 12.93-7.24 20.41.05 8.05 2.73 19.69 10.47 19.69h116.14c3.93 0 5.92-1.37 6.72-2.65a10.287 10.287 0 0 0 1-5.14c.172-8.08-.316-16.16-1.46-24.16Z" fill="#136D09" stroke="#136D09" stroke-width="3" stroke-linecap="round" stroke-linejoin="round"/><path d="m252.612 120 1.1-.85-1.06.83a1.99 1.99 0 0 0-.79 1.6c0 .192.027.384.08.57l2.63 8.19a4.196 4.196 0 0 1-1.49 4.65 4.006 4.006 0 0 1-4.81 0l-6.9-5.07a1.919 1.919 0 0 0-1.11-.35 1.855 1.855 0 0 0-1.1.34l-6.92 5.09a4.006 4.006 0 0 1-4.81 0 4.165 4.165 0 0 1-1.49-4.64l2.63-8.19c.057-.185.087-.377.09-.57a2.065 2.065 0 0 0-.89-1.68l-6.77-4.92a4 4 0 0 1 2.41-7.3h8.8l-.48.08c1.13-.37 1.76-.85 2-1.39l2.63-8.39a4.076 4.076 0 0 1 3.9-2.882 4.08 4.08 0 0 1 3.9 2.882l2.64 8.35c.23.62.86 1.09 2 1.46l-.47-.08h8.8a3.997 3.997 0 0 1 3.942 5.279 4.004 4.004 0 0 1-1.532 2.021l-6.93 4.97Z" fill="url(#a)"/><path opacity=".2" d="m226.851 127.54-.91 2.84a4.176 4.176 0 0 0 1.49 4.64 4 4 0 0 0 4.81 0l6.92-5.08a1.874 1.874 0 0 1 1.1-.34c.398-.001.785.121 1.11.35l6.9 5.07a4 4 0 0 0 4.81 0 4.19 4.19 0 0 0 1.49-4.65l-2.63-8.19a2.07 2.07 0 0 1-.08-.57 2.004 2.004 0 0 1 .79-1.6l.11-.09 6.77-5a3.996 3.996 0 0 0 1.542-4.557 3.999 3.999 0 0 0-3.952-2.743h-.64a86.345 86.345 0 0 0-29.63 19.92Z" fill="#803700"/><defs><linearGradient id="a" x1="240.262" y1="95.06" x2="240.262" y2="143.85" gradientUnits="userSpaceOnUse"><stop stop-color="#F3C529"/><stop offset="1" stop-color="#EFAB33"/></linearGradient></defs></svg>