<svg width="300" height="258" fill="none" xmlns="http://www.w3.org/2000/svg"><path d="M117.91 248.09a13.209 13.209 0 0 1-13.21-13.2v-44.07c-.58-11.76 5.93-24.74 16.33-30.26a30.706 30.706 0 0 1 33.15 3.27c6.77 5.61 10.72 14 12.51 22.66a89.917 89.917 0 0 1 1.56 18.18 5.01 5.01 0 0 0 .451 2.03 5.008 5.008 0 0 0 5.119 2.89 5.52 5.52 0 0 1 3.43.67 7.11 7.11 0 0 1 2.05 1.939 7.127 7.127 0 0 1 1.14 2.581 4.216 4.216 0 0 0 4.43 3.3 15.44 15.44 0 0 1 13.95 24.12c-4.73 7.1-16.13 5.57-23.72 5.69-9.333.14-18.647.207-27.94.2h-29.25Z" fill="#13C1AC" stroke="#13C1AC" stroke-width="3" stroke-linecap="round" stroke-linejoin="round"/><path opacity=".2" d="M198.819 242.2a15.768 15.768 0 0 0 2.44-11.91 14.554 14.554 0 0 0-4.15-1.77c-3.82-1-7.85-.53-11.76 0-6.41.94-14.34 3-20.65 3.21-6.31.21-12.38-.16-16.87-1.36-5.62-1.51-11.29-4.77-14.62-9.57-2.68-3.88-6.78-6.22-11.12-7.81-4.34-1.59-8.16-4.17-9.34-8.78a21.365 21.365 0 0 1-.44-2.5c-.92-6.71-.61-13.43-.61-20.22a95.026 95.026 0 0 0-.51-12.14 34.785 34.785 0 0 0-6.49 21.43v44.07a13.21 13.21 0 0 0 13.21 13.2h29.25c9.334 0 18.647-.067 27.94-.2 7.59-.08 18.99 1.45 23.72-5.65Z" fill="#04413C" stroke="#04413C" stroke-width="3" stroke-linecap="round" stroke-linejoin="round"/><path d="M86.96 249.09V139.28h15.271v109.81" stroke="#CFD8DC" stroke-width="3" stroke-linecap="round" stroke-linejoin="round"/><path d="M127.93 179.36a6.999 6.999 0 0 0 11.75-2.71M148.359 174.47a5.277 5.277 0 0 0 5.759 1.634 5.273 5.273 0 0 0 3.571-4.804M145.25 186.19l6.43-1.08" stroke="#04413C" stroke-width="3" stroke-linecap="round" stroke-linejoin="round"/><path d="m167.91 151.16 7.49-.26c-2.16 2.67-5.65 6.09-7.82 8.75h8.59M182.141 133.76l8-.28c-2.29 4.2-5.65 9-7.94 13.24l9.09-.09M198.369 112.83l9.19-.19c-2.09 4.44-6.28 9.6-9.37 13.42l10.56-.4" stroke="#90A4AE" stroke-width="3" stroke-linecap="round" stroke-linejoin="round"/><path d="M62.51 250.09h189.37" stroke="#CFD8DC" stroke-width="3" stroke-linecap="round" stroke-linejoin="round"/><path d="M62.51 74.61h60.161a26.808 26.808 0 0 1 26.81 26.81v32.29a5.57 5.57 0 0 1-5.57 5.57H41.281a5.569 5.569 0 0 1-5.57-5.57v-32.29a26.81 26.81 0 0 1 26.8-26.81v0Z" stroke="#13C1AC" stroke-width="3" stroke-linecap="round" stroke-linejoin="round"/><path d="M62.51 74.61a26.81 26.81 0 0 1 26.81 26.81v37.86M114.101 112.12a6.29 6.29 0 1 0-.001-12.581 6.29 6.29 0 0 0 .001 12.581Z" stroke="#13C1AC" stroke-width="3" stroke-linecap="round" stroke-linejoin="round"/><path d="M247.35 74.9h-42.58c-16.36 0-21.61.19-22.26-8.16-.37-4.74 2.58-9.74 7.24-10.74a12.777 12.777 0 0 1 11.5 2.9c-.52-4.5 2.16-10.22 6.21-12.26a11.469 11.469 0 0 1 12.66 1.82c.84-4.56 1.42-10.46 3.94-14.35 2.52-3.89 6.82-6.93 11.45-6.72 5.81.26 10.39 5.56 11.79 11.2 1.4 5.64.33 11.57-.74 17.28 3.59-1.15 8.19-.25 10.62 2.63a9.86 9.86 0 0 1 1.19 10.62c-1.74 3.33-4.61 5.78-11.02 5.78Z" stroke="#CFD8DC" stroke-width="3" stroke-linecap="round" stroke-linejoin="round"/><path d="M128.8 60.7h-14.7V46.01h14.7l-7.63 7.35 7.63 7.34ZM114.1 46.01v53.53" stroke="#13C1AC" stroke-width="3" stroke-linecap="round" stroke-linejoin="round"/></svg>