<svg viewBox="0 0 301 260" xmlns:xlink="http://www.w3.org/1999/xlink" xmlns="http://www.w3.org/2000/svg" width="301" height="260" fill="none"><path d="M259.84 121H41.16a2.999 2.999 0 0 1-3-3v-4.77a2.998 2.998 0 0 1 3-3h218.68c.796 0 1.559.316 2.121.879.563.562.879 1.325.879 2.121V118c0 .796-.316 1.559-.879 2.121a2.996 2.996 0 0 1-2.121.879v0Zm3 54.38v-4.76c0-.796-.316-1.559-.879-2.121a2.996 2.996 0 0 0-2.121-.879H41.16a2.999 2.999 0 0 0-3 3v4.76a2.998 2.998 0 0 0 3 3h218.68a3 3 0 0 0 2.97-2.99l.03-.01Zm0-114.69v-4.75a2.999 2.999 0 0 0-3-3H41.16a3 3 0 0 0-3 3v4.76a3 3 0 0 0 3 3h218.68a2.999 2.999 0 0 0 2.97-3l.03-.01ZM251.41 167.66v-46.65M150.5 121.01v46.65M251.41 110.32V63.67M150.5 63.67v46.65M150.5 46v6.97M251.41 52.97V46M251.41 219.74v-41.38M150.5 178.36v41.38M49.59 121.01v46.65M49.59 63.67v46.65M49.59 46v6.97M49.59 178.36v41.38" stroke="#CFD8DC" stroke-width="3" stroke-linecap="round" stroke-linejoin="round"/><path d="M164.902 170.69a170.091 170.091 0 0 0 14.81-45.1c.83-4.3 1.55-8.67 3.38-12.65a23.516 23.516 0 0 1 13.14-12.27 37.008 37.008 0 0 1 12.63-1.67c7.19 0 15.14 1.09 19.86 6.52 3.75 4.32 6.24 13.65 7.27 19.28 2.51 13.8 5.35 25.72 7.47 39.58s6.28 35.92 3.38 42.77c-2.9 6.85-8.39 10.59-12.61 10.59h-58.51c-7.82 0-10.94-3.45-13.08-6.06-2.14-2.61-4.51-8.21-5.34-12.66-1.8-9.79 3.2-19.38 7.6-28.33Z" fill="#FF89C2" stroke="#FF89C2" stroke-width="3" stroke-linecap="round" stroke-linejoin="round"/><path opacity=".2" d="m247.08 188.81-10.87 4.59a106.71 106.71 0 0 1-12.53 4.67 52.995 52.995 0 0 1-27.29.31 105.516 105.516 0 0 1-13.74-4.89l-23.62-9.66c-1.74 5-2.69 10-1.73 15.19.83 4.45 3.21 10 5.34 12.66s5.26 6.06 13.08 6.06h58.51c4.22 0 9.71-3.74 12.61-10.59 1.43-3.36 1.14-10.4.24-18.34Z" fill="#670A6F" stroke="#670A6F" stroke-width="3" stroke-linecap="round" stroke-linejoin="round"/><path fill-rule="evenodd" clip-rule="evenodd" d="M219.311 117.81a2.994 2.994 0 0 1 .442-1.7 2.993 2.993 0 0 1 4.629-.598 3.002 3.002 0 0 1 .711 3.284 2.993 2.993 0 0 1-2.782 1.884 2.949 2.949 0 0 1-3-2.87ZM188.591 118.6a2.947 2.947 0 0 1 4.988-2.211c.423.404.715.925.841 1.496a2.943 2.943 0 0 1-1.196 3.058 2.948 2.948 0 0 1-1.633.527 2.94 2.94 0 0 1-3-2.87Z" fill="#670A6F"/><path d="m202.77 122.99 8.5-.27" stroke="#670A6F" stroke-width="3" stroke-linecap="round" stroke-linejoin="round"/><path d="M148.392 148.34a7.466 7.466 0 0 1-2.66-2.38 1.594 1.594 0 0 1 .609-2.363c.28-.135.592-.186.901-.147a44.73 44.73 0 0 1 13.52 4.18c8.41 4.12 19.34 11.92 19.34 11.92s-8.55 24.09-13.73 17.06a351.62 351.62 0 0 0-7.28-9.55c-2.88-3.64-7.92-7.24-12.56-7.31-2.8 0-5.58.94-7.88-2.64-2-3.06.6-5.4 2.66-6.63a15.317 15.317 0 0 1 9.74-2" fill="#FF89C2"/><path d="M148.392 148.34a7.466 7.466 0 0 1-2.66-2.38 1.594 1.594 0 0 1 .609-2.363c.28-.135.592-.186.901-.147a44.73 44.73 0 0 1 13.52 4.18c8.41 4.12 19.34 11.92 19.34 11.92s-8.55 24.09-13.73 17.06a351.62 351.62 0 0 0-7.28-9.55c-2.88-3.64-7.92-7.24-12.56-7.31-2.8 0-5.58.94-7.88-2.64-2-3.06.6-5.4 2.66-6.63a15.317 15.317 0 0 1 9.74-2" stroke="#FF89C2" stroke-width="3" stroke-linecap="round" stroke-linejoin="round"/><path d="M138.852 153.29s4.46-2.52 5.78-2.7M139.711 157.72s4.07-2.31 5.28-2.47" stroke="#670A6F" stroke-width="3" stroke-linecap="round" stroke-linejoin="round"/><path d="M264.982 149.12a7.504 7.504 0 0 0 2.76-2.26 1.602 1.602 0 0 0-.503-2.396 1.605 1.605 0 0 0-.897-.184 44.866 44.866 0 0 0-13.68 3.61c-8.59 3.77-19.83 11.09-19.83 11.09s7.53 24.43 13 17.63c2.41-3 5-6.2 7.67-9.24 3-3.51 8.22-6.9 12.87-6.77 2.79.07 5.53 1.17 8-2.3 2.09-3-.37-5.42-2.37-6.74a15.299 15.299 0 0 0-9.65-2.45" fill="#FF89C2"/><path d="M264.982 149.12a7.504 7.504 0 0 0 2.76-2.26 1.602 1.602 0 0 0-.503-2.396 1.605 1.605 0 0 0-.897-.184 44.866 44.866 0 0 0-13.68 3.61c-8.59 3.77-19.83 11.09-19.83 11.09s7.53 24.43 13 17.63c2.41-3 5-6.2 7.67-9.24 3-3.51 8.22-6.9 12.87-6.77 2.79.07 5.53 1.17 8-2.3 2.09-3-.37-5.42-2.37-6.74a15.299 15.299 0 0 0-9.65-2.45" stroke="#FF89C2" stroke-width="3" stroke-linecap="round" stroke-linejoin="round"/><path d="M274.302 154.47s-4.34-2.71-5.65-2.94M273.26 158.85s-4-2.47-5.17-2.69" stroke="#670A6F" stroke-width="3" stroke-linecap="round" stroke-linejoin="round"/><path d="M254.172 219.74H46.832" stroke="#CFD8DC" stroke-width="3" stroke-linecap="round" stroke-linejoin="round"/><path d="M136.172 216.74h-35.52a3.557 3.557 0 0 1-3.45-2.68l-5.65-22.29a2.39 2.39 0 0 1 2.32-3h49.08c.366-.001.728.082 1.058.242a2.395 2.395 0 0 1 1.262 2.758l-5.65 22.29a3.558 3.558 0 0 1-3.45 2.68v0ZM94.344 202.76h48.14M102.75 188.79v27.95M134.082 188.79v27.95M123.633 188.79v27.95M113.191 188.79v27.95" stroke="#670A6F" stroke-width="3" stroke-linecap="round" stroke-linejoin="round"/><path d="M109 188.77v-15a9 9 0 0 1 9-9v0a9 9 0 0 1 9 9v15" stroke="#670A6F" stroke-width="3" stroke-linecap="round" stroke-linejoin="round"/></svg>