<svg width="200" height="201" viewBox="0 0 200 201" fill="none" xmlns="http://www.w3.org/2000/svg">
<g clip-path="url(#clip0_46998_46363)">
<path d="M70.648 74.1227C69.0389 72.2849 67.1268 70.7466 64.9975 69.577C56.8937 64.6838 47.9531 61.392 38.6464 59.8749C37.6426 59.7125 35.5512 59.3801 34.0834 60.648C32.9199 61.6066 31.8932 63.6243 33.6424 67.7603L38.616 79.5574C33.2925 80.0754 28.0603 80.8485 22.8738 81.8767C19.4059 82.5724 17.4438 84.1959 17.345 86.4378C17.2689 88.1386 18.3412 89.4528 19.3527 90.5429C20.1132 91.3855 21.0638 92.4214 22.06 93.5269C24.2883 95.9776 26.8055 98.7607 28.6003 100.585C31.2696 103.306 33.9237 105.842 37.4296 106.948C38.9099 107.396 40.4481 107.615 41.9926 107.597C43.9167 107.555 45.8354 107.374 47.7343 107.056C51.0653 106.569 54.7385 106.051 58.3812 105.51L69.0281 103.963C69.3273 103.917 69.5968 103.754 69.7788 103.508C69.9608 103.263 70.0408 102.954 70.0016 102.649C69.9811 102.498 69.9313 102.352 69.855 102.221C69.7787 102.09 69.6775 101.975 69.5572 101.883C69.4369 101.792 69.2999 101.726 69.1543 101.689C69.0086 101.652 68.8572 101.644 68.7087 101.667C65.3854 102.147 61.7198 102.665 58.0618 103.175C54.4038 103.685 50.7002 104.211 47.3693 104.721C44.3805 105.154 41.0039 105.641 38.038 104.721C35.6959 103.838 33.578 102.432 31.84 100.608L57.5979 97.4619C57.9005 97.425 58.1762 97.2674 58.3645 97.0239C58.5527 96.7803 58.6381 96.4707 58.6018 96.1631C58.5655 95.8556 58.4105 95.5753 58.1709 95.3839C57.9313 95.1925 57.6267 95.1058 57.3241 95.1427L29.7486 98.5133C28.4482 97.1681 26.8207 95.421 25.1857 93.6274L52.9817 90.2723C53.1315 90.2545 53.2764 90.2069 53.4081 90.1322C53.5398 90.0575 53.6558 89.9572 53.7494 89.837C53.8429 89.7167 53.9123 89.5789 53.9535 89.4314C53.9947 89.2839 54.0069 89.1297 53.9894 88.9774C53.9719 88.8251 53.9251 88.6778 53.8516 88.5439C53.7781 88.41 53.6794 88.2921 53.5612 88.197C53.4429 88.1019 53.3073 88.0314 53.1622 87.9895C53.0171 87.9477 52.8654 87.9353 52.7155 87.953L23.2768 91.5092C22.4175 90.5506 21.6037 89.6538 20.9193 88.9117C20.2349 88.1695 19.4896 87.2959 19.5276 86.4919C19.5884 84.9922 22.1285 84.3273 23.216 84.1109C31.024 82.5541 38.9343 81.5852 46.8826 81.2118H47.4834C49.6584 81.1036 53.3011 80.9258 55.0883 81.2891C58.6018 82.0158 62.0088 84.3196 64.6857 87.7752C66.663 90.3264 67.6745 93.3414 68.7392 96.5342C68.9901 97.3073 69.2487 98.0804 69.4996 98.8534C69.5412 99.0071 69.6134 99.1505 69.7119 99.2745C69.8103 99.3986 69.9329 99.5007 70.0719 99.5744C70.2109 99.6481 70.3633 99.692 70.5197 99.7031C70.6762 99.7143 70.8331 99.6926 70.9809 99.6393C71.1287 99.586 71.2641 99.5024 71.3786 99.3935C71.4932 99.2847 71.5844 99.153 71.6467 99.0067C71.7089 98.8604 71.7408 98.7027 71.7404 98.5433C71.74 98.3839 71.7072 98.2263 71.6442 98.0804C71.3781 97.3073 71.1271 96.5342 70.8837 95.823C69.8038 92.5838 68.6859 89.2364 66.4653 86.3682C63.4233 82.5029 59.5752 79.8821 55.5294 79.0472C53.4913 78.622 49.8181 78.8075 47.3921 78.9235H46.7989C44.8368 79.0085 42.8824 79.14 40.9203 79.3023L37.8783 72.1359L61.6514 78.9699C61.7524 79.001 61.8575 79.0166 61.9632 79.0163C62.2365 79.0127 62.4994 78.9094 62.7042 78.7253C62.9089 78.5411 63.0418 78.2884 63.0786 78.0131C63.1155 77.7378 63.0538 77.4581 62.9049 77.2251C62.756 76.9921 62.5298 76.8212 62.2674 76.7434L36.7224 69.3992L35.7185 66.8171C35.1786 65.5493 34.4409 63.2919 35.498 62.4106C36.114 61.9004 37.2091 61.9931 38.2966 62.1709C47.3171 63.6401 55.9838 66.8269 63.8416 71.5638C65.7369 72.606 67.4423 73.971 68.8836 75.5993C71.9256 79.4028 72.0929 84.8375 71.9712 90.5429C71.9651 90.8491 72.0784 91.1454 72.2865 91.367C72.4945 91.5886 72.7803 91.7176 73.0816 91.7257C73.3802 91.7257 73.667 91.6067 73.8802 91.3943C74.0935 91.1818 74.2163 90.8928 74.2223 90.5892C74.382 84.4355 74.2071 78.5447 70.648 74.1227Z" fill="#A31745"/>
<path d="M139.138 115.227C137.517 114.009 135.721 113.049 133.815 112.382L120.323 106.971C123.236 94.6015 122.704 83.7785 120.871 77.0063C119.495 71.8963 115.472 67.1187 110.095 64.1655C104.566 61.1505 94.4743 60.0991 88.261 63.3924C81.3481 67.0027 75.5304 77.5011 73.0512 85.7266C70.6936 93.5733 66.2067 101.242 64.4043 103.337C60.5106 107.79 51.552 110.651 48.6165 111.594C40.6009 114.145 34.5854 122.788 34.9276 131.261C35.0917 133.893 35.7473 136.469 36.8593 138.852C42.023 150.75 55.1948 158.713 68.9597 158.713C70.0092 158.713 71.0663 158.666 72.1157 158.574C82.0022 157.685 91.6376 152.729 100.041 144.256C104.311 139.896 108.035 135.017 111.129 129.73C117.013 128.911 122.941 128.47 128.879 128.408H129.64C131.989 128.408 134.415 128.455 136.743 127.635C139.336 126.715 142.005 124.35 142.119 121.126C142.102 119.976 141.824 118.845 141.306 117.823C140.789 116.8 140.047 115.911 139.138 115.227Z" fill="#FD6C67"/>
<path opacity="0.2" d="M103.988 138.505C103.832 138.294 103.609 138.144 103.357 138.079C103.106 138.015 102.84 138.039 102.604 138.149C96.8925 140.77 90.8573 142.591 84.6639 143.56C77.8854 144.736 70.9461 144.552 64.237 143.019C57.5701 141.495 51.4795 138.042 46.7 133.078C43.4679 129.614 41.0572 125.347 39.0951 121.698C38.9986 121.512 38.8543 121.356 38.6774 121.247C38.5006 121.138 38.298 121.08 38.0913 121.079C37.8826 121.08 37.6782 121.139 37.5 121.25C37.3218 121.36 37.1765 121.518 37.0798 121.706C35.5598 124.632 34.808 127.907 34.8972 131.214C35.0651 133.864 35.7311 136.457 36.8593 138.852C42.023 150.75 55.1948 158.713 68.9597 158.713C70.0092 158.713 71.0663 158.666 72.1157 158.574C86.6792 157.259 97.463 147.75 103.95 139.958C104.116 139.755 104.21 139.502 104.217 139.238C104.224 138.974 104.143 138.716 103.988 138.505Z" fill="#A31745"/>
<path d="M119.198 158.581C118.98 158.581 118.766 158.516 118.583 158.396C118.4 158.276 118.255 158.104 118.164 157.903C118.074 157.701 118.042 157.477 118.073 157.257C118.104 157.038 118.196 156.832 118.339 156.664C134.864 137.206 141.572 113.573 138.872 84.4124C138.857 84.2606 138.872 84.1073 138.916 83.9614C138.959 83.8155 139.031 83.6797 139.126 83.5619C139.222 83.4442 139.339 83.3467 139.472 83.2751C139.604 83.2034 139.749 83.1591 139.899 83.1446C140.199 83.1187 140.496 83.2135 140.728 83.4087C140.96 83.6039 141.107 83.8838 141.138 84.1882C143.929 114.021 137.047 138.219 120.095 158.179C119.984 158.309 119.846 158.412 119.691 158.482C119.536 158.551 119.367 158.585 119.198 158.581Z" fill="#A31745"/>
<path d="M73.5607 182.284H57.8641C57.5616 182.284 57.2714 182.162 57.0575 181.944C56.8435 181.727 56.7234 181.432 56.7234 181.124C56.7234 180.817 56.8435 180.522 57.0575 180.304C57.2714 180.087 57.5616 179.965 57.8641 179.965H73.5607C73.8632 179.965 74.1534 180.087 74.3673 180.304C74.5812 180.522 74.7014 180.817 74.7014 181.124C74.7014 181.432 74.5812 181.727 74.3673 181.944C74.1534 182.162 73.8632 182.284 73.5607 182.284Z" fill="#CFD8DC"/>
<path d="M98.3832 74.6562C98.0438 74.3263 97.5974 74.1339 97.1281 74.1154C96.6588 74.0969 96.1991 74.2535 95.8355 74.5557L94.7252 75.4447L93.843 74.3238C93.5569 73.9432 93.1433 73.6826 92.6808 73.5914C92.2182 73.5002 91.7388 73.5848 91.3334 73.829C91.1151 73.9726 90.9286 74.1609 90.7859 74.3818C90.6432 74.6028 90.5473 74.8516 90.5045 75.1123C90.4596 75.3724 90.4695 75.6393 90.5338 75.8952C90.598 76.1511 90.7151 76.3902 90.8771 76.5966L93.1586 79.5188C93.4189 79.8434 93.7919 80.0537 94.2005 80.1064C94.404 80.1326 94.6107 80.1166 94.8081 80.0595C95.0054 80.0024 95.1894 79.9052 95.3488 79.774L98.2159 77.4547C98.4201 77.2899 98.588 77.0834 98.7087 76.8485C98.8295 76.6136 98.9004 76.3556 98.9168 76.0911C98.9333 75.8266 98.895 75.5615 98.8044 75.313C98.7138 75.0645 98.5729 74.8381 98.3908 74.6485L98.3832 74.6562Z" fill="#A31745"/>
<path d="M119.472 78.3437C119.134 78.0111 118.688 77.8163 118.218 77.7963C117.748 77.7764 117.288 77.9327 116.924 78.2354L115.814 79.1322L114.932 78.0035C114.644 77.6242 114.23 77.3652 113.768 77.2754C113.305 77.1857 112.826 77.2714 112.422 77.5165C112.203 77.6592 112.016 77.8469 111.873 78.0676C111.73 78.2882 111.633 78.5368 111.591 78.7975C111.548 79.0582 111.559 79.3251 111.623 79.5812C111.688 79.8372 111.804 80.0766 111.966 80.2841L114.247 83.1986C114.373 83.3628 114.53 83.4994 114.709 83.6004C114.888 83.7013 115.085 83.7645 115.289 83.7861C115.493 83.8123 115.699 83.7964 115.897 83.7393C116.094 83.6821 116.278 83.585 116.437 83.4537L119.304 81.1345C119.508 80.9702 119.676 80.7642 119.797 80.5298C119.917 80.2954 119.988 80.0378 120.004 79.7739C120.021 79.5107 119.982 79.2468 119.89 79.0002C119.798 78.7535 119.656 78.5296 119.472 78.3437Z" fill="#A31745"/>
<path d="M104.999 87.7445C102.638 87.7526 100.326 87.0535 98.3528 85.7345C98.2279 85.6502 98.1207 85.5418 98.037 85.4154C97.9534 85.289 97.8951 85.147 97.8655 84.9977C97.8358 84.8484 97.8354 84.6946 97.8642 84.5451C97.893 84.3956 97.9505 84.2534 98.0334 84.1265C98.1163 83.9996 98.2229 83.8905 98.3473 83.8055C98.4716 83.7205 98.6112 83.6613 98.7581 83.6311C98.905 83.601 99.0563 83.6005 99.2034 83.6298C99.3504 83.6591 99.4904 83.7175 99.6152 83.8018C100.894 84.6515 102.351 85.1862 103.869 85.3634C105.388 85.5405 106.925 85.3552 108.361 84.8223C108.639 84.7447 108.935 84.7769 109.191 84.9124C109.446 85.048 109.642 85.2768 109.738 85.5529C109.834 85.829 109.824 86.1319 109.71 86.4008C109.596 86.6697 109.385 86.8846 109.121 87.0023C107.801 87.4934 106.406 87.7446 104.999 87.7445Z" fill="#A31745"/>
<path d="M95.5085 112.962C95.2226 113.64 94.8353 114.268 94.3602 114.825C94.2841 114.918 94.1929 114.995 94.1168 115.08L119.517 156.486C119.59 156.628 119.691 156.753 119.813 156.853C119.935 156.953 120.076 157.027 120.228 157.069C120.38 157.111 120.538 157.121 120.694 157.098C120.849 157.075 120.998 157.02 121.131 156.935C121.265 156.851 121.38 156.739 121.469 156.608C121.558 156.476 121.619 156.327 121.649 156.171C121.679 156.014 121.676 155.852 121.642 155.696C121.608 155.541 121.542 155.394 121.449 155.265L95.5085 112.962Z" fill="#A31745"/>
<path d="M141.191 85.92C141.128 85.7817 141.038 85.6575 140.927 85.5547C140.816 85.4518 140.686 85.3722 140.545 85.3205C140.403 85.2688 140.253 85.2459 140.103 85.2533C139.953 85.2606 139.806 85.298 139.67 85.3633L94.6568 106.832C95.1128 107.354 95.471 107.957 95.7139 108.61C95.7139 108.695 95.7139 108.78 95.7823 108.857L140.613 87.4584C140.752 87.3973 140.877 87.3087 140.981 87.1978C141.085 87.087 141.167 86.956 141.221 86.8127C141.275 86.6694 141.3 86.5167 141.295 86.3633C141.29 86.21 141.255 86.0593 141.191 85.92Z" fill="#A31745"/>
<path d="M83.5003 119.502H82.0858C81.7833 119.502 81.4931 119.38 81.2792 119.163C81.0653 118.945 80.9451 118.65 80.9451 118.343C80.9451 118.035 81.0653 117.74 81.2792 117.523C81.4931 117.305 81.7833 117.183 82.0858 117.183C84.1974 117.284 86.3135 117.154 88.3979 116.796C90.333 116.457 92.112 115.502 93.478 114.067C94.0918 113.401 94.5235 112.583 94.7303 111.695C94.9371 110.807 94.9117 109.879 94.6568 109.004C94.1164 107.705 93.1299 106.65 91.881 106.035C90.4777 105.347 88.9998 104.828 87.4777 104.489L79.5154 102.386C79.37 102.348 79.2336 102.28 79.1139 102.188C78.9942 102.096 78.8935 101.981 78.8176 101.849C78.6643 101.583 78.6212 101.266 78.6978 100.968C78.7745 100.669 78.9646 100.414 79.2263 100.258C79.488 100.102 79.7999 100.059 80.0933 100.137L88.0557 102.247C89.7566 102.626 91.4062 103.213 92.9685 103.994C94.6933 104.888 96.0434 106.384 96.771 108.208C97.1686 109.471 97.2295 110.82 96.9476 112.115C96.6658 113.411 96.0511 114.607 95.1663 115.583C93.4741 117.394 91.2576 118.61 88.839 119.054C87.079 119.387 85.2903 119.537 83.5003 119.502Z" fill="#A31745"/>
<path d="M141.389 114.284C140.665 113.846 139.853 113.582 139.014 113.509C138.175 113.437 137.331 113.559 136.545 113.867C133.67 114.91 131.221 117.941 130.37 120.399C129.91 121.56 129.699 122.806 129.749 124.056C129.798 125.306 130.109 126.531 130.659 127.65C131.195 128.665 131.984 129.519 132.948 130.124C133.913 130.729 135.017 131.065 136.149 131.098C136.507 131.099 136.864 131.06 137.214 130.982C138.142 130.747 139.012 130.317 139.766 129.719C140.521 129.121 141.143 128.369 141.594 127.511C143.762 123.746 145.61 116.827 141.389 114.284Z" fill="#FD6C67"/>
<path d="M161.687 115.049L157.527 110.411C157.433 110.278 157.313 110.167 157.174 110.085C157.035 110.002 156.881 109.951 156.721 109.933C156.561 109.916 156.4 109.933 156.247 109.984C156.094 110.034 155.953 110.117 155.834 110.227C155.715 110.336 155.62 110.47 155.555 110.62C155.491 110.769 155.458 110.931 155.459 111.095C155.46 111.258 155.495 111.419 155.562 111.568C155.629 111.716 155.725 111.849 155.846 111.957L157.998 114.346L96.0409 110.202C95.8911 110.192 95.7409 110.213 95.5988 110.262C95.4568 110.312 95.3257 110.389 95.2131 110.49C95.1005 110.591 95.0085 110.713 94.9424 110.85C94.8763 110.987 94.8374 111.136 94.8279 111.288C94.8184 111.441 94.8385 111.593 94.8871 111.738C94.9357 111.882 95.0117 112.015 95.1109 112.13C95.2102 112.244 95.3306 112.338 95.4654 112.405C95.6001 112.472 95.7466 112.512 95.8964 112.521L158.196 116.696L155.534 119.17C155.424 119.273 155.335 119.397 155.271 119.535C155.208 119.673 155.172 119.823 155.166 119.975C155.16 120.127 155.183 120.279 155.234 120.422C155.286 120.565 155.364 120.697 155.466 120.809C155.572 120.929 155.702 121.025 155.848 121.091C155.993 121.156 156.151 121.189 156.31 121.188C156.591 121.185 156.862 121.078 157.071 120.886L161.633 116.65C161.849 116.449 161.982 116.173 162.006 115.877C162.007 115.57 161.893 115.274 161.687 115.049Z" fill="#A31745"/>
<path d="M130.255 128.393C130.05 128.392 129.849 128.336 129.673 128.23C129.496 128.124 129.351 127.972 129.252 127.79C128.702 126.669 128.391 125.443 128.341 124.192C128.292 122.94 128.503 121.693 128.963 120.531C129.966 117.778 133.252 113.673 137.123 113.627C137.425 113.627 137.715 113.749 137.929 113.967C138.143 114.184 138.263 114.479 138.263 114.787C138.263 115.094 138.143 115.389 137.929 115.607C137.715 115.824 137.425 115.946 137.123 115.946C134.704 115.946 131.997 118.814 131.039 121.358C130.699 122.212 130.537 123.129 130.565 124.05C130.592 124.971 130.808 125.876 131.198 126.707C131.337 126.975 131.367 127.286 131.281 127.575C131.196 127.864 131.002 128.108 130.742 128.254C130.593 128.338 130.426 128.385 130.255 128.393Z" fill="#A31745"/>
<path d="M175.733 43.1996C174.361 42.6732 172.862 42.5948 171.444 42.9754C171.931 40.1923 172.432 36.9454 172.105 34.2551C171.626 30.3356 169.778 27.1041 167.048 25.3879C163.717 23.3161 159.147 24.0196 157.055 26.9341C156.365 27.9295 155.923 29.0812 155.77 30.2892C154.025 28.7161 151.789 27.8207 149.458 27.7613C149.154 27.7613 148.85 27.7613 148.545 27.8154C147.447 24.7639 145.326 22.2031 142.556 20.5823C139.785 18.9614 136.542 18.3839 133.394 18.9511C130.247 19.5184 127.396 21.1941 125.343 23.6843C123.289 26.1746 122.164 29.3203 122.164 32.5698C122.144 35.777 123.227 38.8904 125.227 41.371C127.227 43.8516 130.017 45.5431 133.115 46.1528C132.85 47.4538 132.996 48.8067 133.533 50.0181C134.628 52.3838 137.184 53.8835 140.218 53.8835H172.303C176.326 53.8835 178.387 51.2783 178.935 49.0363C179.163 47.8359 178.967 46.592 178.382 45.524C177.796 44.4561 176.858 43.6329 175.733 43.1996ZM124.415 32.5775C124.414 29.8976 125.334 27.3015 127.014 25.2369C128.695 23.1722 131.032 21.7683 133.621 21.2672C136.211 20.7661 138.892 21.1993 141.201 22.4921C143.51 23.7848 145.304 25.8561 146.271 28.3488C143.921 29.1803 141.99 30.9266 140.905 33.2038C139.82 35.4811 139.669 38.1031 140.484 40.4938C138.604 40.4305 136.766 41.0715 135.32 42.2951C134.778 42.7608 134.316 43.3146 133.952 43.934C131.287 43.5171 128.858 42.1412 127.108 40.0567C125.357 37.9723 124.402 35.3181 124.415 32.5775ZM176.722 48.4643C176.6 48.9822 175.794 51.5566 172.303 51.5566H140.218C138.111 51.5566 136.301 50.5748 135.594 49.0595C135.248 48.2057 135.178 47.2624 135.392 46.3651C135.607 45.4678 136.095 44.6627 136.788 44.0654C137.745 43.2486 138.953 42.7998 140.203 42.7976C140.84 42.7931 141.472 42.9221 142.058 43.1764C142.285 43.2779 142.537 43.302 142.778 43.2449C143.019 43.1878 143.235 43.0527 143.394 42.8599C143.552 42.6671 143.645 42.4271 143.658 42.1761C143.671 41.925 143.603 41.6765 143.465 41.4679C142.74 40.3698 142.321 39.0919 142.254 37.7708C142.186 36.4496 142.473 35.1346 143.084 33.9663C143.695 32.798 144.606 31.8202 145.72 31.1371C146.835 30.4541 148.111 30.0916 149.412 30.0882C150.742 30.1407 152.036 30.5403 153.169 31.2484C154.302 31.9566 155.238 32.9494 155.884 34.1314C156.01 34.3732 156.216 34.5621 156.465 34.6645C156.715 34.767 156.992 34.7766 157.248 34.6914C157.503 34.6063 157.721 34.4321 157.863 34.1994C158.004 33.9668 158.06 33.6908 158.021 33.4202C157.808 31.9204 157.778 29.8176 158.865 28.3024C160.386 26.1533 163.763 26.0837 165.809 27.367C167.854 28.6503 169.413 31.3715 169.801 34.5411C170.121 37.1928 169.497 40.7258 168.987 43.5243L168.805 44.5679C168.768 44.7796 168.79 44.9974 168.869 45.197C168.947 45.3967 169.078 45.5704 169.247 45.6986C169.417 45.8269 169.618 45.9048 169.829 45.9235C170.039 45.9423 170.251 45.9012 170.44 45.8049C171.102 45.4197 171.835 45.1801 172.594 45.1015C173.352 45.0229 174.119 45.1072 174.843 45.3488C176.03 45.8203 177.033 47.1578 176.722 48.4643Z" fill="#CFD8DC"/>
</g>
<defs>
<clipPath id="clip0_46998_46363">
<rect width="200" height="201" fill="white"/>
</clipPath>
</defs>
</svg>
