<svg xmlns:xlink="http://www.w3.org/1999/xlink" xmlns="http://www.w3.org/2000/svg" width="222" height="154" viewBox="0 0 222 154" fill="none">
<path d="M214.901 16.2805H130.001C128.38 16.2805 126.826 15.6368 125.68 14.491C124.534 13.3451 123.891 11.791 123.891 10.1705C123.891 8.55007 124.534 6.99598 125.68 5.85013C126.826 4.70428 128.38 4.06055 130.001 4.06055H214.901C216.521 4.06055 218.075 4.70428 219.221 5.85013C220.367 6.99598 221.011 8.55007 221.011 10.1705C221.011 11.791 220.367 13.3451 219.221 14.491C218.075 15.6368 216.521 16.2805 214.901 16.2805V16.2805ZM130.001 7.06055C129.176 7.06055 128.385 7.38821 127.802 7.97145C127.218 8.55469 126.891 9.34572 126.891 10.1705C126.891 10.9954 127.218 11.7864 127.802 12.3697C128.385 12.9529 129.176 13.2805 130.001 13.2805H214.901C215.725 13.2805 216.516 12.9529 217.1 12.3697C217.683 11.7864 218.011 10.9954 218.011 10.1705C218.011 9.34572 217.683 8.55469 217.1 7.97145C216.516 7.38821 215.725 7.06055 214.901 7.06055H130.001Z" fill="#CFD8DC"/>
<path d="M105.12 19.3605C103.302 19.3605 101.525 18.8215 100.014 17.8117C98.5027 16.8019 97.3248 15.3666 96.6292 13.6873C95.9337 12.0081 95.7517 10.1603 96.1063 8.37759C96.4609 6.59491 97.3361 4.95741 98.6214 3.67216C99.9066 2.38692 101.544 1.51165 103.327 1.15706C105.109 0.802458 106.957 0.984451 108.637 1.68002C110.316 2.37559 111.751 3.55349 112.761 5.06478C113.771 6.57607 114.31 8.35286 114.31 10.1705C114.307 12.607 113.338 14.943 111.615 16.6659C109.892 18.3887 107.556 19.3578 105.12 19.3605V19.3605ZM105.12 3.98047C103.895 3.98047 102.699 4.34351 101.681 5.02367C100.663 5.70384 99.8694 6.67059 99.4009 7.80166C98.9324 8.93274 98.8098 10.1773 99.0486 11.3781C99.2875 12.5788 99.877 13.6818 100.743 14.5475C101.608 15.4131 102.711 16.0027 103.912 16.2415C105.113 16.4804 106.357 16.3578 107.489 15.8893C108.62 15.4208 109.586 14.6274 110.266 13.6094C110.947 12.5915 111.31 11.3947 111.31 10.1705C111.302 8.53306 110.646 6.96528 109.487 5.80932C108.327 4.65336 106.757 4.00309 105.12 4.00047V3.98047Z" fill="#CFD8DC"/>
<path d="M214.902 40.8902H130.002C128.423 40.8263 126.929 40.1541 125.835 39.0143C124.74 37.8745 124.129 36.3555 124.129 34.7752C124.129 33.1949 124.74 31.6758 125.835 30.536C126.929 29.3962 128.423 28.724 130.002 28.6602H214.902C216.481 28.724 217.974 29.3962 219.068 30.536C220.163 31.6758 220.774 33.1949 220.774 34.7752C220.774 36.3555 220.163 37.8745 219.068 39.0143C217.974 40.1541 216.481 40.8263 214.902 40.8902V40.8902ZM130.002 31.6602C129.206 31.7053 128.458 32.0531 127.91 32.6323C127.363 33.2115 127.058 33.9782 127.058 34.7752C127.058 35.5721 127.363 36.3388 127.91 36.918C128.458 37.4972 129.206 37.8451 130.002 37.8902H214.902C215.697 37.8451 216.445 37.4972 216.993 36.918C217.54 36.3388 217.845 35.5721 217.845 34.7752C217.845 33.9782 217.54 33.2115 216.993 32.6323C216.445 32.0531 215.697 31.7053 214.902 31.6602H130.002Z" fill="#CFD8DC"/>
<path d="M105.12 44.0001C103.302 44.0001 101.525 43.4611 100.014 42.4513C98.5027 41.4415 97.3248 40.0062 96.6292 38.327C95.9337 36.6477 95.7517 34.7999 96.1063 33.0172C96.4609 31.2346 97.3361 29.5971 98.6214 28.3118C99.9066 27.0266 101.544 26.1513 103.327 25.7967C105.109 25.4421 106.957 25.6241 108.637 26.3197C110.316 27.0152 111.751 28.1931 112.761 29.7044C113.771 31.2157 114.31 32.9925 114.31 34.8101C114.307 37.2466 113.338 39.5826 111.615 41.3055C109.892 43.0284 107.556 43.9975 105.12 44.0001V44.0001ZM105.12 28.6201C103.895 28.6201 102.699 28.9832 101.681 29.6633C100.663 30.3435 99.8694 31.3102 99.4009 32.4413C98.9324 33.5724 98.8098 34.817 99.0486 36.0177C99.2875 37.2185 99.877 38.3214 100.743 39.1871C101.608 40.0528 102.711 40.6423 103.912 40.8812C105.113 41.12 106.357 40.9974 107.489 40.5289C108.62 40.0604 109.586 39.267 110.266 38.2491C110.947 37.2312 111.31 36.0344 111.31 34.8101C111.314 33.9942 111.157 33.1856 110.847 32.4306C110.538 31.6755 110.083 30.989 109.508 30.4102C108.933 29.8314 108.249 29.3718 107.496 29.0578C106.743 28.7438 105.936 28.5814 105.12 28.5801V28.6201Z" fill="#CFD8DC"/>
<path d="M214.902 65.4908H130.002C128.423 65.4269 126.929 64.7547 125.835 63.6149C124.74 62.4751 124.129 60.956 124.129 59.3757C124.129 57.7954 124.74 56.2764 125.835 55.1366C126.929 53.9968 128.423 53.3246 130.002 53.2607H214.902C216.481 53.3246 217.974 53.9968 219.068 55.1366C220.163 56.2764 220.774 57.7954 220.774 59.3757C220.774 60.956 220.163 62.4751 219.068 63.6149C217.974 64.7547 216.481 65.4269 214.902 65.4908V65.4908ZM130.002 56.2607C129.206 56.3058 128.458 56.6537 127.91 57.2329C127.363 57.8121 127.058 58.5788 127.058 59.3757C127.058 60.1727 127.363 60.9394 127.91 61.5186C128.458 62.0978 129.206 62.4457 130.002 62.4908H214.902C215.697 62.4457 216.445 62.0978 216.993 61.5186C217.54 60.9394 217.845 60.1727 217.845 59.3757C217.845 58.5788 217.54 57.8121 216.993 57.2329C216.445 56.6537 215.697 56.3058 214.902 56.2607H130.002Z" fill="#CFD8DC"/>
<path d="M105.12 68.5704C103.302 68.5704 101.525 68.0315 100.014 67.0217C98.5027 66.0118 97.3248 64.5766 96.6292 62.8973C95.9337 61.2181 95.7517 59.3702 96.1063 57.5876C96.4609 55.8049 97.3361 54.1674 98.6214 52.8821C99.9066 51.5969 101.544 50.7216 103.327 50.367C105.109 50.0124 106.957 50.1944 108.637 50.89C110.316 51.5856 111.751 52.7635 112.761 54.2747C113.771 55.786 114.31 57.5628 114.31 59.3804C114.304 61.8162 113.334 64.1506 111.612 65.8729C109.89 67.5952 107.555 68.5652 105.12 68.5704V68.5704ZM105.12 53.1904C103.895 53.1904 102.699 53.5535 101.681 54.2336C100.663 54.9138 99.8694 55.8805 99.4009 57.0116C98.9324 58.1427 98.8098 59.3873 99.0486 60.5881C99.2875 61.7888 99.877 62.8917 100.743 63.7574C101.608 64.6231 102.711 65.2127 103.912 65.4515C105.113 65.6903 106.357 65.5678 107.489 65.0993C108.62 64.6307 109.586 63.8374 110.266 62.8194C110.947 61.8015 111.31 60.6047 111.31 59.3804C111.307 57.7396 110.654 56.1667 109.494 55.0064C108.333 53.8461 106.761 53.1931 105.12 53.1904V53.1904Z" fill="#CFD8DC"/>
<path d="M214.901 90.0901H130.001C128.38 90.0901 126.826 89.4464 125.68 88.3005C124.534 87.1547 123.891 85.6006 123.891 83.9801C123.891 82.3596 124.534 80.8055 125.68 79.6597C126.826 78.5139 128.38 77.8701 130.001 77.8701H214.901C216.521 77.8701 218.075 78.5139 219.221 79.6597C220.367 80.8055 221.011 82.3596 221.011 83.9801C221.011 85.6006 220.367 87.1547 219.221 88.3005C218.075 89.4464 216.521 90.0901 214.901 90.0901V90.0901ZM130.001 80.8701C129.176 80.8701 128.385 81.1978 127.802 81.781C127.218 82.3643 126.891 83.1553 126.891 83.9801C126.891 84.8049 127.218 85.596 127.802 86.1792C128.385 86.7625 129.176 87.0901 130.001 87.0901H214.901C215.725 87.0901 216.516 86.7625 217.1 86.1792C217.683 85.596 218.011 84.8049 218.011 83.9801C218.011 83.1553 217.683 82.3643 217.1 81.781C216.516 81.1978 215.725 80.8701 214.901 80.8701H130.001Z" fill="#CFD8DC"/>
<path d="M105.12 93.17C103.302 93.17 101.525 92.6311 100.014 91.6212C98.5027 90.6114 97.3248 89.1762 96.6292 87.4969C95.9337 85.8176 95.7517 83.9698 96.1063 82.1872C96.4609 80.4045 97.3361 78.767 98.6214 77.4817C99.9066 76.1965 101.544 75.3212 103.327 74.9666C105.109 74.612 106.957 74.794 108.637 75.4896C110.316 76.1852 111.751 77.3631 112.761 78.8744C113.771 80.3856 114.31 82.1624 114.31 83.98C114.307 86.4166 113.338 88.7525 111.615 90.4754C109.892 92.1983 107.556 93.1674 105.12 93.17V93.17ZM105.12 77.79C103.895 77.79 102.699 78.1531 101.681 78.8332C100.663 79.5134 99.8694 80.4802 99.4009 81.6112C98.9324 82.7423 98.8098 83.9869 99.0486 85.1876C99.2875 86.3884 99.877 87.4914 100.743 88.357C101.608 89.2227 102.711 89.8123 103.912 90.0511C105.113 90.2899 106.357 90.1674 107.489 89.6988C108.62 89.2303 109.586 88.437 110.266 87.419C110.947 86.4011 111.31 85.2043 111.31 83.98C111.307 82.3392 110.654 80.7662 109.494 79.606C108.333 78.4457 106.761 77.7927 105.12 77.79V77.79Z" fill="#CFD8DC"/>
<path d="M214.902 114.701H130.002C128.423 114.637 126.929 113.965 125.835 112.825C124.74 111.685 124.129 110.166 124.129 108.586C124.129 107.005 124.74 105.486 125.835 104.347C126.929 103.207 128.423 102.535 130.002 102.471H214.902C216.481 102.535 217.974 103.207 219.068 104.347C220.163 105.486 220.774 107.005 220.774 108.586C220.774 110.166 220.163 111.685 219.068 112.825C217.974 113.965 216.481 114.637 214.902 114.701V114.701ZM130.002 105.471C129.206 105.516 128.458 105.864 127.91 106.443C127.363 107.022 127.058 107.789 127.058 108.586C127.058 109.383 127.363 110.149 127.91 110.729C128.458 111.308 129.206 111.656 130.002 111.701H214.902C215.697 111.656 216.445 111.308 216.993 110.729C217.54 110.149 217.845 109.383 217.845 108.586C217.845 107.789 217.54 107.022 216.993 106.443C216.445 105.864 215.697 105.516 214.902 105.471H130.002Z" fill="#CFD8DC"/>
<path d="M203.531 4.06055H130.001C128.38 4.06055 126.826 4.70428 125.68 5.85013C124.534 6.99598 123.891 8.55007 123.891 10.1705C123.891 11.791 124.534 13.3451 125.68 14.491C126.826 15.6368 128.38 16.2805 130.001 16.2805H203.501C205.121 16.2805 206.675 15.6368 207.821 14.491C208.967 13.3451 209.611 11.791 209.611 10.1705C209.611 8.55007 208.967 6.99598 207.821 5.85013C206.675 4.70428 205.121 4.06055 203.501 4.06055H203.531Z" fill="#385EF9"/>
<path d="M182.882 28.6603H130.002C128.423 28.7241 126.929 29.3963 125.835 30.5361C124.74 31.6759 124.129 33.195 124.129 34.7753C124.129 36.3556 124.74 37.8746 125.835 39.0144C126.929 40.1542 128.423 40.8264 130.002 40.8903H182.852C183.675 40.9236 184.497 40.7901 185.268 40.4978C186.039 40.2055 186.743 39.7605 187.338 39.1893C187.933 38.6182 188.406 37.9328 188.729 37.1743C189.052 36.4158 189.219 35.5998 189.219 34.7753C189.219 33.9508 189.052 33.1347 188.729 32.3762C188.406 31.6177 187.933 30.9323 187.338 30.3612C186.743 29.7901 186.039 29.345 185.268 29.0527C184.497 28.7604 183.675 28.627 182.852 28.6603H182.882Z" fill="#385EF9"/>
<path d="M168.352 53.2607H130.002C128.423 53.3246 126.929 53.9968 125.835 55.1366C124.74 56.2764 124.129 57.7954 124.129 59.3757C124.129 60.956 124.74 62.4751 125.835 63.6149C126.929 64.7547 128.423 65.4269 130.002 65.4908H168.322C169.901 65.4269 171.394 64.7547 172.488 63.6149C173.583 62.4751 174.194 60.956 174.194 59.3757C174.194 57.7954 173.583 56.2764 172.488 55.1366C171.394 53.9968 169.901 53.3246 168.322 53.2607H168.352Z" fill="#385EF9"/>
<path d="M162.151 77.8701H130.001C128.38 77.8701 126.826 78.5139 125.68 79.6597C124.534 80.8055 123.891 82.3596 123.891 83.9801C123.891 85.6006 124.534 87.1547 125.68 88.3005C126.826 89.4464 128.38 90.0901 130.001 90.0901H162.121C163.741 90.0901 165.295 89.4464 166.441 88.3005C167.587 87.1547 168.231 85.6006 168.231 83.9801C168.231 82.3596 167.587 80.8055 166.441 79.6597C165.295 78.5139 163.741 77.8701 162.121 77.8701H162.151Z" fill="#385EF9"/>
<path d="M139.182 102.471H130.002C128.423 102.535 126.929 103.207 125.835 104.347C124.74 105.486 124.129 107.006 124.129 108.586C124.129 110.166 124.74 111.685 125.835 112.825C126.929 113.965 128.423 114.637 130.002 114.701H139.152C139.975 114.734 140.797 114.601 141.568 114.308C142.339 114.016 143.043 113.571 143.638 113C144.233 112.429 144.706 111.743 145.029 110.985C145.352 110.226 145.519 109.41 145.519 108.586C145.519 107.761 145.352 106.945 145.029 106.187C144.706 105.428 144.233 104.743 143.638 104.172C143.043 103.601 142.339 103.156 141.568 102.863C140.797 102.571 139.975 102.437 139.152 102.471H139.182Z" fill="#385EF9"/>
<path d="M105.12 117.771C103.302 117.771 101.524 117.231 100.013 116.221C98.5015 115.211 97.3236 113.775 96.6283 112.095C95.933 110.415 95.7516 108.567 96.107 106.784C96.4624 105.001 97.3387 103.364 98.6249 102.079C99.9112 100.794 101.55 99.9195 103.333 99.566C105.116 99.2125 106.964 99.3959 108.643 100.093C110.323 100.79 111.757 101.97 112.766 103.482C113.774 104.995 114.312 106.773 114.31 108.591C114.304 111.025 113.334 113.359 111.612 115.08C109.889 116.8 107.554 117.768 105.12 117.771V117.771ZM105.12 102.401C103.895 102.401 102.699 102.764 101.681 103.444C100.663 104.124 99.8694 105.091 99.4009 106.222C98.9324 107.353 98.8098 108.597 99.0486 109.798C99.2875 110.999 99.877 112.102 100.743 112.968C101.608 113.833 102.711 114.423 103.912 114.662C105.113 114.901 106.357 114.778 107.489 114.309C108.62 113.841 109.586 113.048 110.266 112.03C110.947 111.012 111.31 109.815 111.31 108.591C111.31 106.949 110.658 105.374 109.497 104.214C108.336 103.053 106.761 102.401 105.12 102.401Z" fill="#CFD8DC"/>
<path d="M102.351 66.67C103.061 54.23 103.781 41.36 101.421 29.56C100.776 26.7702 99.5107 24.1616 97.7188 21.9283C95.9269 19.6949 93.6546 17.8942 91.0708 16.66C86.4808 14.34 80.6908 13.66 72.8508 14.51C67.6962 15.1033 62.7029 16.6783 58.1408 19.15C49.3308 23.81 42.5908 36.63 38.1408 57.26C37.8508 58.56 37.5708 59.93 37.2708 61.34C35.2108 71.18 32.6408 83.42 27.8108 90.56L23.8108 96.45C18.5008 104.32 11.2108 115.1 7.66083 120.28C3.39083 126.48 -0.0291741 135.91 2.50083 141.95C5.13083 148.2 11.4308 151.79 19.8008 151.79H76.3008C92.1108 151.79 98.0408 144.47 99.8608 141.32C101.981 137.64 102.011 133.7 101.801 130.68C101.651 128.58 101.291 92.54 101.871 76.62C102.001 73.4 102.161 70.13 102.351 66.67Z" fill="#385EF9"/>
<path opacity="0.2" d="M101.333 132.301C101.163 132.155 100.962 132.05 100.746 131.993C100.529 131.936 100.303 131.928 100.083 131.971C93.4522 133.241 86.7439 134.066 80.003 134.441C65.883 135.171 52.803 133.541 41.123 129.591C35.5865 127.615 30.153 125.363 24.843 122.841C22.3058 121.769 19.8637 120.484 17.543 119.001C15.9859 117.935 14.5683 116.679 13.323 115.261C13.1706 115.09 12.9815 114.957 12.7699 114.87C12.5583 114.783 12.3298 114.745 12.1016 114.76C11.8733 114.774 11.6513 114.84 11.4524 114.953C11.2534 115.066 11.0827 115.222 10.953 115.411C9.68301 117.291 8.54301 118.951 7.65301 120.261C3.38301 126.461 -0.0369868 135.891 2.49301 141.931C5.12301 148.181 11.423 151.771 19.793 151.771H76.293C92.093 151.771 98.033 144.451 99.853 141.301C101.171 138.898 101.859 136.201 101.853 133.461C101.856 133.241 101.811 133.024 101.721 132.823C101.631 132.623 101.499 132.445 101.333 132.301Z" fill="#0B175E"/>
<path d="M43.0614 110.771C42.8645 110.783 42.6671 110.755 42.4806 110.691C42.2941 110.627 42.1221 110.526 41.9744 110.395C41.8268 110.264 41.7064 110.105 41.6201 109.928C41.5338 109.75 41.4833 109.558 41.4714 109.361C41.4596 109.164 41.4867 108.966 41.5512 108.78C41.6156 108.593 41.7162 108.421 41.8471 108.274C41.9781 108.126 42.1368 108.006 42.3143 107.919C42.4917 107.833 42.6845 107.783 42.8814 107.771C47.4514 107.221 63.1814 105.101 73.7414 100.771C75.2762 100.244 76.7051 99.4478 77.9614 98.4207C80.6714 95.8807 80.7614 92.8908 80.5714 88.6308C80.558 88.3213 80.6413 88.0154 80.8098 87.7556C80.9782 87.4957 81.2235 87.2948 81.5114 87.1807C81.5114 87.1807 85.7014 85.4807 87.6714 84.5007C88.9014 83.8907 90.3214 82.9207 90.1014 81.7807C89.9814 81.1707 89.7314 79.9207 86.0014 80.2807C82.0816 80.6619 78.201 81.3744 74.4014 82.4108C74.2014 82.4645 73.9924 82.4763 73.7876 82.4453C73.5828 82.4143 73.3866 82.3413 73.2114 82.2307C73.0357 82.1195 72.8847 81.9733 72.7677 81.8013C72.6508 81.6293 72.5703 81.4351 72.5314 81.2307C72.4414 80.7507 72.3614 80.2907 72.2814 79.8407C72.0365 78.408 71.7025 76.992 71.2814 75.6008V75.4207C70.5514 73.0007 70.0014 72.0007 68.6614 72.0007C67.0014 72.0007 66.1014 74.5208 66.0014 76.1008C65.9475 77.1442 65.9675 78.1901 66.0614 79.2307C66.0614 79.7207 66.1214 80.2308 66.1414 80.6908C66.1518 81.0432 66.0384 81.3881 65.8211 81.6657C65.6037 81.9434 65.2961 82.1362 64.9514 82.2108C61.0042 83.0966 56.9906 83.6552 52.9514 83.8808C52.5556 83.8919 52.1707 83.7492 51.8779 83.4825C51.5852 83.2158 51.4072 82.846 51.3814 82.4507C51.372 82.2537 51.4016 82.0568 51.4684 81.8712C51.5352 81.6856 51.638 81.515 51.7708 81.3691C51.9036 81.2233 52.0639 81.1051 52.2425 81.0213C52.421 80.9375 52.6144 80.8897 52.8114 80.8808C56.2366 80.6869 59.6426 80.239 63.0014 79.5407C63.0014 79.5407 63.0014 79.4607 63.0014 79.4207C62.9161 78.2323 62.9161 77.0392 63.0014 75.8508C63.2714 72.5608 65.1714 69.0107 68.6814 69.0107C72.5014 69.0107 73.5514 72.4907 74.1714 74.5607L74.2314 74.7408C74.6507 76.173 74.9846 77.6289 75.2314 79.1008C78.6888 78.2393 82.205 77.6343 85.7514 77.2907C91.0814 76.7707 92.6814 79.1307 93.0814 81.2007C93.4014 82.8507 92.9714 85.2007 89.0814 87.2007C87.5914 87.9407 85.0814 89.0107 83.6814 89.5807C83.8114 93.8807 83.4414 97.4808 80.0814 100.631C78.5663 101.909 76.8315 102.902 74.9614 103.561C64.0414 108.061 47.9614 110.231 43.3114 110.781L43.0614 110.771Z" fill="#0B175E"/>
<path d="M159.431 153.79H2.12109C1.72327 153.79 1.34174 153.632 1.06043 153.351C0.779128 153.069 0.621094 152.688 0.621094 152.29C0.621094 151.892 0.779128 151.511 1.06043 151.229C1.34174 150.948 1.72327 150.79 2.12109 150.79H159.431C159.829 150.79 160.21 150.948 160.492 151.229C160.773 151.511 160.931 151.892 160.931 152.29C160.931 152.688 160.773 153.069 160.492 153.351C160.21 153.632 159.829 153.79 159.431 153.79Z" fill="#CFD8DC"/>
<path d="M76.841 48.0005C75.5554 48.2877 74.2257 48.318 72.9283 48.0898C71.6309 47.8616 70.3914 47.3792 69.281 46.6705C69.6677 45.8725 69.9114 45.0128 70.001 44.1305C70.0217 43.9347 70.0034 43.7367 69.9471 43.5479C69.8908 43.3592 69.7977 43.1835 69.6731 43.031C69.5485 42.8785 69.3949 42.7522 69.2212 42.6594C69.0474 42.5667 68.857 42.5093 68.661 42.4905C68.2704 42.4451 67.8777 42.5548 67.5672 42.7961C67.2567 43.0373 67.0534 43.3908 67.001 43.7805C66.9158 44.5964 66.6228 45.3769 66.1501 46.0474C65.6775 46.7179 65.0408 47.2561 64.301 47.6105C63.9416 47.7816 63.6649 48.0884 63.5318 48.4635C63.3986 48.8385 63.4199 49.2512 63.591 49.6105C63.7621 49.9699 64.0689 50.2466 64.444 50.3797C64.819 50.5129 65.2316 50.4916 65.591 50.3205C66.2885 49.9757 66.9319 49.5311 67.501 49.0005C69.6732 50.417 72.2078 51.1774 74.801 51.1905C75.7778 51.1962 76.7506 51.065 77.691 50.8005C78.0729 50.6878 78.3944 50.428 78.5848 50.0782C78.7751 49.7285 78.8187 49.3174 78.706 48.9355C78.5933 48.5536 78.3335 48.2321 77.9837 48.0418C77.634 47.8514 77.2229 47.8078 76.841 47.9205V48.0005Z" fill="#0B175E"/>
<path d="M90.7603 37.001C90.1278 37.003 89.5101 37.1923 88.9852 37.5452C88.4603 37.898 88.0517 38.3984 87.811 38.9833C87.5704 39.5682 87.5084 40.2113 87.633 40.8314C87.7576 41.4515 88.0632 42.0207 88.5111 42.4672C88.959 42.9138 89.5292 43.2175 90.1497 43.3402C90.7702 43.4629 91.4131 43.3989 91.9972 43.1564C92.5813 42.9139 93.0805 42.5038 93.4317 41.9778C93.7829 41.4518 93.9703 40.8335 93.9703 40.201C93.9703 39.7799 93.8872 39.363 93.7258 38.9741C93.5643 38.5852 93.3277 38.232 93.0295 37.9347C92.7313 37.6374 92.3774 37.4019 91.988 37.2417C91.5986 37.0815 91.1814 36.9997 90.7603 37.001V37.001Z" fill="#0B175E"/>
<path d="M57.3992 37.001C56.7663 37.001 56.1476 37.1886 55.6214 37.5403C55.0952 37.8919 54.685 38.3917 54.4428 38.9764C54.2006 39.5611 54.1372 40.2045 54.2607 40.8253C54.3842 41.446 54.6889 42.0162 55.1365 42.4637C55.584 42.9112 56.1542 43.216 56.7749 43.3395C57.3957 43.463 58.0391 43.3996 58.6238 43.1574C59.2085 42.9152 59.7083 42.505 60.0599 41.9788C60.4115 41.4526 60.5992 40.8339 60.5992 40.201C60.5992 39.3523 60.2621 38.5383 59.662 37.9382C59.0618 37.3381 58.2479 37.001 57.3992 37.001V37.001Z" fill="#0B175E"/>
<path d="M59.9211 26.8108C59.0463 26.4874 58.1083 26.3724 57.1813 26.4748C56.2544 26.5772 55.3641 26.8943 54.5811 27.4008C54.3117 27.5795 54.1073 27.8403 53.9982 28.1445C53.8891 28.4487 53.8812 28.78 53.9756 29.0891C54.07 29.3982 54.2617 29.6685 54.5222 29.8598C54.7826 30.0511 55.0979 30.1532 55.4211 30.1508C55.7161 30.1498 56.0045 30.063 56.2511 29.9008C56.6302 29.6538 57.0619 29.4989 57.5117 29.4485C57.9614 29.3982 58.4167 29.4537 58.8411 29.6108C59.2124 29.7541 59.6254 29.7439 59.9892 29.5826C60.353 29.4214 60.6378 29.1221 60.7811 28.7508C60.9243 28.3795 60.9141 27.9666 60.7528 27.6027C60.5916 27.2389 60.2924 26.9541 59.9211 26.8108V26.8108Z" fill="#0B175E"/>
<path d="M95.9399 26.6008C94.8867 25.8898 93.7006 25.3993 92.453 25.1587C91.2053 24.9181 89.9218 24.9324 88.6799 25.2008C88.4755 25.2303 88.2794 25.3017 88.1039 25.4106C87.9284 25.5194 87.7773 25.6633 87.66 25.8333C87.5427 26.0033 87.4618 26.1956 87.4222 26.3983C87.3827 26.601 87.3855 26.8097 87.4304 27.0112C87.4752 27.2128 87.5612 27.4029 87.683 27.5697C87.8048 27.7365 87.9597 27.8764 88.138 27.9805C88.3163 28.0847 88.5142 28.1509 88.7193 28.175C88.9244 28.1992 89.1322 28.1807 89.3299 28.1208C90.1735 27.9492 91.043 27.9493 91.8866 28.1211C92.7302 28.2929 93.5305 28.6329 94.2399 29.1208C94.5693 29.3444 94.9737 29.429 95.3651 29.3559C95.7566 29.2829 96.1033 29.0582 96.3299 28.7308C96.4456 28.5658 96.5273 28.3795 96.5704 28.1826C96.6134 27.9858 96.6169 27.7823 96.5806 27.5841C96.5443 27.3859 96.469 27.1969 96.359 27.0281C96.249 26.8593 96.1065 26.714 95.9399 26.6008V26.6008Z" fill="#0B175E"/>
</svg>