<svg width="200" height="201" viewBox="0 0 200 201" fill="none" xmlns="http://www.w3.org/2000/svg">
<g clip-path="url(#clip0_46998_46365)">
<path d="M152.789 110.774C153.398 110.163 154.043 109.59 154.721 109.058C155.622 108.361 156.462 107.585 157.23 106.739C158.485 105.324 159.136 103.461 159.04 101.559C159.007 100.975 158.855 100.405 158.593 99.8847C158.331 99.3643 157.965 98.905 157.519 98.5363C155.443 96.8665 152.622 97.7633 150.675 98.5363C141.868 102.216 133.458 106.809 125.578 112.243C123.928 108.61 122.133 104.821 120.149 100.879C115.289 91.2462 109.578 81.9075 100.718 78.8693C97.5288 77.8693 94.1742 77.5328 90.8543 77.8797C87.3344 78.1163 83.8547 78.778 80.4888 79.8511C77.7586 80.7246 73.8192 82.2708 71.1271 85.6646C68.5946 88.8574 67.5604 93.1171 66.8759 96.8588C66.3588 99.665 65.9785 102.541 65.6059 105.316C65.1268 108.849 64.6401 112.498 63.8872 116C61.9976 124.905 58.2644 133.298 52.9361 140.623C51.5292 142.54 49.9777 144.403 48.4796 146.204C46.5631 148.523 44.5706 150.897 42.8139 153.479C39.0114 159.091 37.0722 164.627 37.1026 169.93C37.1406 176.014 39.1027 186.304 46.2285 186.304H134.507C138.423 186.304 139.997 184.673 140.591 183.698C141.304 182.295 141.638 180.723 141.556 179.145C141.771 168.563 140.576 157.999 138.005 147.743C141.807 144.094 145.45 140.29 148.926 136.363C151.329 133.649 154.051 130.449 155.937 126.738C157.147 124.349 158.888 119.734 156.896 115.699C155.911 113.762 154.507 112.078 152.789 110.774Z" fill="#13C1AC"/>
<path d="M145.534 123.484C143.731 123.371 141.968 122.895 140.347 122.084C140.209 122.024 140.085 121.938 139.98 121.829C139.875 121.72 139.792 121.591 139.737 121.449C139.681 121.308 139.653 121.157 139.655 121.004C139.656 120.852 139.688 120.701 139.746 120.561C139.805 120.421 139.891 120.294 139.998 120.188C140.105 120.081 140.232 119.997 140.371 119.941C140.51 119.884 140.659 119.856 140.809 119.857C140.959 119.859 141.107 119.891 141.245 119.951C143.237 120.809 145.169 121.535 146.819 120.956C147.393 120.742 147.901 120.378 148.291 119.9C148.681 119.422 148.94 118.847 149.04 118.234C149.39 115.869 147.389 113.696 145.184 111.702C145.072 111.6 144.981 111.477 144.916 111.34C144.851 111.203 144.813 111.054 144.804 110.902C144.796 110.749 144.817 110.597 144.867 110.453C144.916 110.309 144.993 110.177 145.093 110.063C145.193 109.949 145.314 109.857 145.449 109.79C145.584 109.724 145.73 109.686 145.88 109.677C146.03 109.669 146.18 109.69 146.321 109.74C146.463 109.791 146.593 109.869 146.705 109.97C149.268 112.289 151.816 115.111 151.268 118.575C151.105 119.605 150.673 120.572 150.018 121.376C149.362 122.179 148.507 122.789 147.542 123.143C146.896 123.371 146.217 123.486 145.534 123.484Z" fill="#04413C"/>
<path d="M190.076 82.6188C189.048 81.4801 187.745 80.6352 186.296 80.1686C184.846 79.702 183.302 79.6298 181.817 79.9594C179.338 80.4619 177.254 82.4023 175.55 84.3195C173.87 82.4023 171.748 80.4541 169.276 79.9594C167.791 79.6298 166.247 79.702 164.798 80.1686C163.349 80.6352 162.045 81.4801 161.017 82.6188C160.209 83.6433 159.627 84.8336 159.314 86.1079C159 87.3823 158.961 88.7106 159.2 90.0016C159.649 92.4284 160.629 94.7215 162.067 96.712C164.698 100.616 168.6 103.708 172.372 106.7C173.208 107.365 174.037 108.014 174.828 108.671C175.032 108.836 175.286 108.926 175.547 108.926C175.808 108.926 176.061 108.836 176.265 108.671C177.026 108.014 177.885 107.365 178.722 106.7C182.524 103.708 186.395 100.608 189.026 96.712C190.467 94.7232 191.447 92.4294 191.893 90.0016C192.132 88.7106 192.094 87.3823 191.78 86.1079C191.466 84.8336 190.885 83.6433 190.076 82.6188Z" fill="#FD6C67"/>
<path d="M87.7135 52.3992C87.504 52.4005 87.2983 52.3416 87.1203 52.2291L85.7971 51.456C83.6582 50.3293 81.6993 48.8801 79.9869 47.1577C79.0968 46.2169 78.4285 45.0829 78.0324 43.8412C77.808 43.1451 77.7352 42.4077 77.8193 41.6801C77.9033 40.9525 78.1422 40.2523 78.5191 39.628C79.0056 38.9169 79.6664 38.3473 80.4361 37.9758C81.2058 37.6042 82.0576 37.4436 82.9072 37.5097C84.1441 37.7153 85.28 38.3293 86.1393 39.2569C86.7279 38.1323 87.6666 37.2379 88.8086 36.7135C89.6117 36.4226 90.4756 36.3501 91.3147 36.5034C92.1538 36.6566 92.9389 37.0302 93.5921 37.587C94.1094 38.0946 94.513 38.7095 94.7754 39.3898C95.0379 40.0702 95.1531 40.8001 95.1131 41.5297C95.0476 42.8325 94.694 44.1035 94.0789 45.2482C92.8697 47.3699 91.3519 49.2934 89.5767 50.9535C89.2117 51.3324 88.8162 51.7266 88.512 52.0745C88.2973 52.2838 88.011 52.4002 87.7135 52.3992ZM82.5726 39.7826C82.1579 39.7725 81.7469 39.8634 81.3739 40.0476C81.0008 40.2319 80.6765 40.5041 80.428 40.8417C80.2348 41.1917 80.1166 41.5793 80.0812 41.979C80.0458 42.3787 80.094 42.7815 80.2227 43.1609C80.5241 44.0689 81.0232 44.896 81.6828 45.5807C83.2434 47.1251 85.0191 48.4276 86.953 49.446L87.5234 49.7862L87.9797 49.3069C89.5387 47.6912 91.1586 46.0213 92.0712 44.1737C92.5226 43.3362 92.7825 42.4061 92.8316 41.4524C92.8634 41.0574 92.8119 40.6601 92.6808 40.2868C92.5497 39.9136 92.3418 39.573 92.0712 39.2878C91.7211 39.0062 91.3054 38.8213 90.8645 38.7509C90.4235 38.6804 89.972 38.7269 89.5539 38.8858C88.8695 39.1255 88.1166 40.3933 87.6147 41.205L87.3561 41.638C87.2669 41.7841 87.147 41.9084 87.005 42.002C86.863 42.0955 86.7024 42.156 86.5348 42.1791C86.3679 42.1985 86.1989 42.1816 86.039 42.1296C85.8791 42.0777 85.7318 41.9918 85.607 41.8776L85.2419 41.522C84.5423 40.8417 83.4928 39.8212 82.7627 39.7749L82.5726 39.7826Z" fill="#CFD8DC"/>
<path d="M153.032 42.4032C152.859 42.4021 152.688 42.3612 152.533 42.2835C152.378 42.2059 152.242 42.0935 152.135 41.9548L151.177 40.7333C149.565 38.9081 148.236 36.8434 147.237 34.6106C146.733 33.4106 146.502 32.1105 146.56 30.807C146.597 30.0782 146.788 29.3661 147.12 28.7191C147.452 28.0721 147.918 27.5054 148.485 27.0576C149.185 26.5641 150.001 26.2671 150.85 26.1966C151.699 26.126 152.552 26.2843 153.321 26.6556C154.411 27.2895 155.262 28.2741 155.74 29.4542C156.679 28.6082 157.871 28.1073 159.124 28.0317C159.975 28.0456 160.808 28.2864 161.54 28.73C162.271 29.1736 162.875 29.8045 163.291 30.5597C163.605 31.2194 163.774 31.94 163.789 32.6725C163.803 33.4049 163.662 34.1319 163.375 34.8038C162.858 35.999 162.077 37.0571 161.094 37.8962C159.229 39.452 157.141 40.7086 154.903 41.6224L153.511 42.2872C153.362 42.3607 153.198 42.4002 153.032 42.4032ZM151.192 28.4878C150.709 28.4777 150.235 28.6238 149.838 28.9053C149.537 29.1598 149.292 29.4757 149.12 29.8327C148.947 30.1896 148.849 30.5795 148.834 30.9771C148.806 31.936 148.987 32.8894 149.367 33.7679C150.287 35.7747 151.494 37.6321 152.949 39.28L153.367 39.7979L153.96 39.5196C155.982 38.6957 157.873 37.573 159.573 36.1877C160.292 35.5681 160.869 34.7946 161.261 33.9225C161.42 33.5574 161.502 33.1624 161.502 32.7629C161.502 32.3635 161.42 31.9685 161.261 31.6033C161.029 31.2152 160.703 30.8941 160.314 30.6708C159.926 30.4474 159.487 30.3293 159.04 30.3277C158.28 30.3277 157.169 31.2168 156.409 31.8275L156.013 32.1367C155.88 32.2406 155.725 32.3132 155.561 32.3492C155.397 32.3853 155.227 32.384 155.063 32.3455C154.898 32.3084 154.744 32.2334 154.612 32.1262C154.48 32.019 154.374 31.8824 154.302 31.727L154.082 31.2709C153.664 30.3896 153.032 29.0444 152.371 28.7429C152 28.5735 151.598 28.4865 151.192 28.4878Z" fill="#CFD8DC"/>
<path d="M18.1511 97.8793C17.9416 97.8807 17.7359 97.8217 17.5579 97.7093L16.2347 96.9362C14.0948 95.8047 12.1359 94.3503 10.4245 92.6224C9.53711 91.6795 8.86921 90.5461 8.47003 89.3059C8.24912 88.6092 8.17824 87.8724 8.26222 87.1454C8.3462 86.4184 8.58307 85.7183 8.95675 85.0926C9.44305 84.3818 10.1041 83.813 10.874 83.4427C11.6439 83.0724 12.4958 82.9136 13.3448 82.9821C14.5851 83.1775 15.7241 83.7932 16.5769 84.7293C17.1656 83.6002 18.1075 82.7026 19.2538 82.1781C20.0557 81.8879 20.9184 81.8158 21.7561 81.9691C22.5939 82.1223 23.3777 82.4955 24.0297 83.0517C24.5478 83.5587 24.9519 84.1734 25.2145 84.8539C25.477 85.5345 25.5917 86.2646 25.5507 86.9944C25.4862 88.2973 25.1326 89.5685 24.5165 90.7129C23.3143 92.8394 21.7956 94.7639 20.0143 96.4182C19.6493 96.797 19.2538 97.1913 18.9496 97.5392C18.7383 97.7555 18.4511 97.8779 18.1511 97.8793ZM13.0178 85.2627C12.602 85.2503 12.1895 85.3409 11.8158 85.5268C11.4422 85.7126 11.1187 85.9882 10.8732 86.3296C10.6774 86.6785 10.557 87.0658 10.5203 87.4658C10.4836 87.8658 10.5313 88.2691 10.6603 88.6488C10.9617 89.5568 11.4608 90.3839 12.1204 91.0685C13.6789 92.6154 15.4551 93.9182 17.3906 94.9339L17.961 95.2741L18.4173 94.7948C20.0242 93.3055 21.4032 91.5805 22.5088 89.677C22.9603 88.8368 23.2202 87.9041 23.2692 86.948C23.299 86.5532 23.2467 86.1564 23.1156 85.7834C22.9846 85.4105 22.7778 85.0698 22.5088 84.7834C22.1573 84.5045 21.7418 84.3213 21.3014 84.2509C20.8609 84.1806 20.4101 84.2255 19.9915 84.3814C19.2995 84.6211 18.5466 85.9276 18.0447 86.7006L17.7861 87.1336C17.6975 87.2797 17.5781 87.404 17.4365 87.4975C17.2949 87.5911 17.1347 87.6515 16.9673 87.6744C16.8 87.6973 16.6297 87.6822 16.4688 87.6301C16.3079 87.578 16.1604 87.4903 16.0369 87.3732L15.6795 87.0176C14.9799 86.345 13.9228 85.3168 13.2003 85.2705L13.0178 85.2627Z" fill="#CFD8DC"/>
<path d="M49.3162 36.984C49.0339 36.9794 48.7632 36.8694 48.5557 36.6748C48.1906 36.3269 47.7952 35.979 47.4149 35.6234C45.5379 34.0814 43.9042 32.2564 42.5706 30.2118C41.8856 29.1102 41.454 27.8655 41.3082 26.5706C41.2277 25.8419 41.3028 25.1041 41.5286 24.4077C41.7543 23.7112 42.1253 23.0725 42.6162 22.5352C43.2327 21.9376 43.9923 21.5147 44.8196 21.3085C45.6469 21.1024 46.5129 21.1201 47.3313 21.3601C48.506 21.8088 49.4993 22.6443 50.1527 23.7335C50.951 22.7493 52.0474 22.0616 53.2707 21.7776C54.1148 21.6557 54.9755 21.7599 55.7678 22.0799C56.56 22.3999 57.2564 22.9246 57.7881 23.602C58.2015 24.2034 58.4833 24.8879 58.6145 25.6094C58.7457 26.3308 58.7232 27.0725 58.5486 27.7844C58.224 29.0466 57.6265 30.2192 56.7994 31.2168C55.2784 33.1186 53.2555 34.5256 51.2706 35.8553C50.8372 36.1491 50.4113 36.4428 50.0006 36.7366C49.8048 36.8922 49.5646 36.979 49.3162 36.984ZM45.9852 23.4938C45.3463 23.4772 44.7265 23.7159 44.2589 24.1586C44.0022 24.4594 43.8106 24.8116 43.6966 25.1926C43.5826 25.5735 43.5487 25.9745 43.5973 26.3696C43.7167 27.3203 44.0441 28.2316 44.5555 29.0368C45.5821 30.8226 47.3009 32.3842 48.9587 33.8994L49.4455 34.3478L49.993 33.969C51.8591 32.8299 53.5502 31.4181 55.0123 29.7789C55.6259 29.0502 56.0727 28.192 56.3203 27.2664C56.4291 26.877 56.4541 26.4683 56.3938 26.0681C56.3334 25.6679 56.1891 25.2856 55.9705 24.9472C55.6785 24.6096 55.3068 24.353 54.8904 24.2015C54.474 24.0501 54.0266 24.0087 53.5901 24.0813C52.8297 24.1741 51.879 25.2641 51.225 25.9831L50.8828 26.3619C50.7664 26.4849 50.6248 26.5804 50.4682 26.6418C50.3115 26.7031 50.1435 26.7288 49.976 26.717C49.8085 26.7052 49.6456 26.6562 49.4987 26.5735C49.3519 26.4908 49.2247 26.3763 49.126 26.2382L48.8371 25.8208C48.2819 25.0477 47.453 23.7953 46.7533 23.602C46.5032 23.5313 46.2448 23.4949 45.9852 23.4938Z" fill="#CFD8DC"/>
<path d="M103.326 101.652L102.748 97.2454C102.707 96.9479 102.554 96.6783 102.322 96.4925C102.089 96.3068 101.795 96.2192 101.501 96.2481L85.3636 98.4282C85.0643 98.4686 84.7929 98.628 84.609 98.8714C84.4251 99.1149 84.3437 99.4225 84.3825 99.7269L84.9605 104.141C85.2568 106.404 86.3504 108.481 88.0384 109.986C89.7263 111.492 91.8941 112.324 94.1397 112.328C94.5569 112.331 94.9737 112.302 95.3869 112.243C97.8256 111.912 100.035 110.611 101.531 108.625C103.027 106.639 103.686 104.131 103.364 101.652H103.326ZM95.0447 109.947C93.5866 110.137 92.1067 109.858 90.8124 109.149C89.5182 108.441 88.4745 107.338 87.8276 105.997C88.9677 105.001 90.3682 104.364 91.8582 104.164C93.2995 103.977 94.7637 104.2 96.0877 104.809C97.4116 105.418 98.5433 106.388 99.3567 107.612C98.2441 108.895 96.7123 109.724 95.0447 109.947Z" fill="#04413C"/>
<path d="M75.3859 100.972C75.1094 100.97 74.8428 100.867 74.6358 100.68C74.4288 100.494 74.2954 100.238 74.2603 99.9588C74.1221 98.8928 74.4056 97.8146 75.0487 96.9609C75.6917 96.1072 76.6417 95.5477 77.6902 95.4054C78.2097 95.3337 78.7381 95.3671 79.2449 95.5038C79.7517 95.6405 80.2269 95.8776 80.6432 96.2017C81.0595 96.5257 81.4086 96.9302 81.6706 97.3919C81.9325 97.8536 82.1021 98.3634 82.1695 98.892C82.2098 99.1995 82.1283 99.5108 81.9429 99.7572C81.7575 100.004 81.4834 100.165 81.1808 100.206C80.8783 100.247 80.5721 100.164 80.3297 99.9759C80.0872 99.7874 79.9283 99.5088 79.888 99.2012C79.8632 98.9708 79.7934 98.7478 79.6826 98.5453C79.5719 98.3428 79.4224 98.1648 79.2431 98.0217C79.0637 97.8787 78.8581 97.7736 78.6382 97.7125C78.4183 97.6514 78.1886 97.6356 77.9626 97.666C77.7366 97.6964 77.5189 97.7723 77.3222 97.8895C77.1255 98.0066 76.9538 98.1625 76.8172 98.348C76.6806 98.5335 76.5818 98.7449 76.5267 98.9697C76.4716 99.1945 76.4612 99.4283 76.4962 99.6573C76.5351 99.9617 76.4536 100.269 76.2697 100.513C76.0858 100.756 75.8145 100.916 75.5152 100.956L75.3859 100.972Z" fill="#04413C"/>
<path d="M105.76 96.8588C105.484 96.8592 105.218 96.7574 105.011 96.5724C104.803 96.3874 104.67 96.1319 104.634 95.8538C104.542 95.315 104.557 94.7627 104.68 94.2301C104.803 93.6975 105.03 93.1956 105.348 92.7545C105.667 92.3135 106.069 91.9424 106.532 91.6636C106.995 91.3847 107.509 91.2039 108.042 91.1319C108.576 91.06 109.118 91.0984 109.636 91.2448C110.155 91.3913 110.639 91.6428 111.059 91.9842C111.48 92.3256 111.828 92.7498 112.083 93.2315C112.338 93.7131 112.495 94.2422 112.544 94.787C112.583 95.0945 112.5 95.4054 112.314 95.6511C112.128 95.8969 111.854 96.0574 111.551 96.0974C111.249 96.1373 110.943 96.0535 110.701 95.8643C110.459 95.6751 110.301 95.396 110.262 95.0885C110.232 94.8621 110.159 94.6439 110.046 94.4464C109.933 94.2489 109.783 94.0759 109.604 93.9374C109.425 93.7988 109.222 93.6974 109.004 93.6389C108.787 93.5804 108.561 93.566 108.338 93.5965C108.115 93.6269 107.901 93.7017 107.706 93.8164C107.512 93.9312 107.342 94.0838 107.206 94.2654C107.069 94.447 106.97 94.6541 106.912 94.875C106.855 95.0958 106.84 95.3259 106.87 95.5523C106.909 95.8567 106.828 96.1644 106.644 96.4078C106.46 96.6513 106.189 96.8107 105.889 96.8511L105.76 96.8588Z" fill="#04413C"/>
<path d="M167.2 187.858H30.6841C30.3815 187.858 30.0914 187.736 29.8774 187.518C29.6635 187.301 29.5433 187.006 29.5433 186.698C29.5433 186.391 29.6635 186.096 29.8774 185.878C30.0914 185.661 30.3815 185.539 30.6841 185.539H167.2C167.503 185.539 167.793 185.661 168.007 185.878C168.221 186.096 168.341 186.391 168.341 186.698C168.341 187.006 168.221 187.301 168.007 187.518C167.793 187.736 167.503 187.858 167.2 187.858Z" fill="#CFD8DC"/>
<path opacity="0.2" d="M190.084 82.6187L189.985 82.5105C189.817 82.3395 189.601 82.2249 189.368 82.1821C189.134 82.1392 188.893 82.1702 188.677 82.2708C188.454 82.378 188.271 82.5557 188.156 82.7773C188.041 82.9989 187.999 83.2525 188.038 83.5V83.6701C188.038 83.8402 188.091 84.0025 188.114 84.1726C188.456 87.3731 187.696 90.3572 186.023 92.2976C184.463 94.1221 182.03 95.3281 178.364 96.0857C177.475 96.2712 176.577 96.4181 175.68 96.5727C173.402 96.8804 171.162 97.427 168.995 98.2039C167.948 98.5894 167.018 99.2447 166.295 100.106C166.109 100.335 166.016 100.627 166.036 100.924C166.056 101.22 166.187 101.497 166.402 101.698C168.295 103.476 170.356 105.115 172.356 106.7C173.185 107.365 174.014 108.014 174.805 108.671C175.01 108.836 175.263 108.926 175.524 108.926C175.785 108.926 176.038 108.836 176.243 108.671C177.003 108.014 177.862 107.365 178.699 106.7C182.501 103.708 186.372 100.608 189.004 96.7119C190.444 94.7232 191.424 92.4293 191.871 90.0016C192.112 88.7127 192.077 87.3861 191.769 86.112C191.461 84.838 190.886 83.6465 190.084 82.6187Z" fill="#A31745"/>
<path opacity="0.2" d="M140.393 160.282C140.354 160.006 140.22 159.753 140.013 159.57C139.806 159.387 139.542 159.286 139.267 159.285C135.974 159.285 131.875 161.805 127.533 164.464C125.21 165.958 122.803 167.31 120.323 168.515C114.239 171.244 105.03 172.149 97.8661 170.711C90.7924 169.271 84.3798 165.509 79.6142 160.004C70.6328 149.621 62.5411 143.274 54.8677 140.607C54.6852 140.538 54.5027 140.484 54.3202 140.429L54.054 140.352C53.8289 140.28 53.5873 140.281 53.3625 140.354C53.1378 140.428 52.941 140.57 52.7992 140.762C51.4227 142.633 49.9093 144.442 48.4492 146.173C46.5327 148.493 44.5402 150.866 42.7835 153.448C38.981 159.061 37.0418 164.596 37.0722 169.899C37.1102 175.983 39.0723 186.273 46.1981 186.273H134.507C138.423 186.273 139.997 184.642 140.591 183.668C141.304 182.264 141.638 180.692 141.556 179.114C141.673 172.815 141.284 166.517 140.393 160.282Z" fill="#04413C"/>
</g>
<defs>
<clipPath id="clip0_46998_46365">
<rect width="200" height="201" fill="white"/>
</clipPath>
</defs>
</svg>
